<?xml version="1.0" standalone="no"?><!-- Generator: Gravit.io --><svg xmlns="http://www.w3.org/2000/svg" xmlns:xlink="http://www.w3.org/1999/xlink" style="isolation:isolate" viewBox="0 0 408 322.667" width="408" height="322.667"><defs><clipPath id="_clipPath_F7a6wuWIbabjHQwtzg2Pm1GIFXt7Arev"><rect width="408" height="322.667"/></clipPath></defs><g clip-path="url(#_clipPath_F7a6wuWIbabjHQwtzg2Pm1GIFXt7Arev)"><path d=" M 5.6 5.6 C 4.4 6.8 4 37.733 4 136.8 C 4 255.6 4.133 266.533 6.267 268.133 C 8 269.733 25.6 270.133 103.2 270.667 L 198 271.333 L 198 289.333 L 198 307.333 L 156.133 308 C 115.867 308.667 114.267 308.8 112.533 311.333 C 110.933 313.733 111.067 314.533 112.8 317.067 L 114.8 320 L 204.667 320 C 284.533 320 294.667 319.733 296.533 317.867 C 297.733 316.8 298.667 314.933 298.667 314 C 298.667 313.067 297.733 311.2 296.533 310.133 C 294.8 308.267 288.933 308 253.2 308 L 212 308 L 211.333 304.933 C 210.933 303.333 210.8 295.067 210.933 286.667 L 211.333 271.333 L 306.667 270.667 C 359.067 270.267 402.8 269.467 403.733 268.933 C 406 267.333 406.133 8 403.733 5.6 C 401.467 3.333 7.867 3.333 5.6 5.6 Z  M 393.333 136.667 L 393.333 257.333 L 204.667 257.333 L 16 257.333 L 16 136.667 L 16 16 L 204.667 16 L 393.333 16 L 393.333 136.667 Z " fill="rgb(255,255,255)"/><path d=" M 254 67.6 C 231.2 68.133 230.4 68.267 230.933 73.6 C 231.467 78.667 233.867 79.733 247.067 79.867 C 252 80 256 80.533 256 81.2 C 256 81.867 246.533 92.133 235.067 103.867 L 214 125.467 L 198.133 114.133 C 181.333 102 178.533 100.533 175.467 102.267 C 174.4 102.8 165.467 112.267 155.467 123.2 C 141.2 138.933 137.333 143.867 137.333 146.933 C 137.333 149.733 138.133 150.8 140.533 151.467 C 142.4 151.867 144.533 151.867 145.2 151.333 C 146 150.933 153.6 142.933 162.267 133.6 C 170.8 124.267 178.267 116.533 178.8 116.267 C 179.333 116 187.2 120.933 196.133 127.2 C 205.067 133.467 213.733 138.667 215.467 138.667 C 217.6 138.667 224.933 132 241.467 114.667 C 254.133 101.467 265.2 90.667 266.267 90.667 C 267.6 90.667 268 93.6 268 102.667 C 268 113.2 268.267 114.8 270.667 116 C 272.533 117.067 274.133 117.067 276 116 C 278.533 114.667 278.667 113.2 278.667 92 C 278.667 71.067 278.533 69.333 276.133 68 C 274.667 67.333 273.067 66.8 272.4 66.933 C 271.867 67.067 263.6 67.467 254 67.6 Z " fill="rgb(255,255,255)"/><path d=" M 269.467 128.533 C 268.4 129.733 268 140.267 268.267 164 C 268.667 194.4 268.933 197.867 271.067 199.2 C 272.667 200.267 274 200.267 275.733 199.2 C 277.733 197.867 278 194.4 278.4 164 C 278.667 129.2 278.4 126.667 273.333 126.667 C 272 126.667 270.267 127.467 269.467 128.533 Z " fill="rgb(255,255,255)"/><path d=" M 229.467 144.533 C 228.4 145.733 228 154.267 228.267 172 C 228.667 194.8 228.933 197.867 231.067 199.2 C 232.667 200.267 234 200.267 235.733 199.2 C 237.733 197.867 238 194.8 238.4 172 C 238.8 145.467 238.267 142.667 233.333 142.667 C 232 142.667 230.267 143.467 229.467 144.533 Z " fill="rgb(255,255,255)"/><path d=" M 148.8 164.267 C 147.2 166.533 146.667 170.667 146.667 180.667 C 146.667 190.667 147.2 194.8 148.8 197.067 C 151.067 200.267 154.533 200.933 157.067 198.4 C 159.333 196.133 159.333 165.2 157.067 162.933 C 154.533 160.4 151.067 161.067 148.8 164.267 Z " fill="rgb(255,255,255)"/><path d=" M 190.133 167.067 C 188.133 168.533 187.733 170.933 187.733 182.4 C 187.733 196.533 188.933 200 193.2 200 C 197.733 200 198.667 197.067 198.667 182.4 C 198.667 169.6 198.4 168 196.133 166.667 C 192.933 164.933 192.933 164.933 190.133 167.067 Z " fill="rgb(255,255,255)"/></g></svg>