<?xml version="1.0" standalone="no"?>
<!DOCTYPE svg PUBLIC "-//W3C//DTD SVG 20010904//EN"
 "http://www.w3.org/TR/2001/REC-SVG-20010904/DTD/svg10.dtd">
<svg version="1.0" xmlns="http://www.w3.org/2000/svg"
 width="306.000000pt" height="242.000000pt" viewBox="0 0 306.000000 242.000000"
 preserveAspectRatio="xMidYMid meet">

<g transform="translate(0.000000,242.000000) scale(0.100000,-0.100000)"
fill="#000000" stroke="none">
<path d="M42 2378 c-9 -9 -12 -241 -12 -984 0 -891 1 -973 17 -985 13 -12 145
-15 727 -19 l711 -5 0 -135 0 -135 -314 -5 c-302 -5 -314 -6 -327 -25 -12 -18
-11 -24 2 -43 l15 -22 674 0 c599 0 675 2 689 16 9 8 16 22 16 29 0 7 -7 21
-16 29 -13 14 -57 16 -325 16 l-309 0 -5 23 c-3 12 -4 74 -3 137 l3 115 715 5
c393 3 721 9 728 13 17 12 18 1957 0 1975 -17 17 -2969 17 -2986 0z m2908
-983 l0 -905 -1415 0 -1415 0 0 905 0 905 1415 0 1415 0 0 -905z"/>
<path d="M1905 1913 c-171 -4 -177 -5 -173 -45 4 -38 22 -46 121 -47 37 -1 67
-5 67 -10 0 -5 -71 -82 -157 -170 l-158 -162 -119 85 c-126 91 -147 102 -170
89 -8 -4 -75 -75 -150 -157 -107 -118 -136 -155 -136 -178 0 -21 6 -29 24 -34
14 -3 30 -3 35 1 6 3 63 63 128 133 64 70 120 128 124 130 4 2 63 -35 130 -82
67 -47 132 -86 145 -86 16 0 71 50 195 180 95 99 178 180 186 180 10 0 13 -22
13 -90 0 -79 2 -91 20 -100 14 -8 26 -8 40 0 19 10 20 21 20 180 0 157 -1 170
-19 180 -11 5 -23 9 -28 8 -4 -1 -66 -4 -138 -5z"/>
<path d="M2021 1456 c-8 -9 -11 -88 -9 -266 3 -228 5 -254 21 -264 12 -8 22
-8 35 0 15 10 17 36 20 264 2 261 0 280 -38 280 -10 0 -23 -6 -29 -14z"/>
<path d="M1721 1336 c-8 -9 -11 -73 -9 -206 3 -171 5 -194 21 -204 12 -8 22
-8 35 0 15 10 17 33 20 204 3 199 -1 220 -38 220 -10 0 -23 -6 -29 -14z"/>
<path d="M1116 1188 c-12 -17 -16 -48 -16 -123 0 -75 4 -106 16 -123 17 -24
43 -29 62 -10 17 17 17 249 0 266 -19 19 -45 14 -62 -10z"/>
<path d="M1426 1167 c-15 -11 -18 -29 -18 -115 0 -106 9 -132 41 -132 34 0 41
22 41 132 0 96 -2 108 -19 118 -24 13 -24 13 -45 -3z"/>
</g>
</svg>
