<?xml version="1.0" ?><svg id="Layer_1_1_" style="enable-background:new 0 0 64 64;" version="1.1" viewBox="0 0 64 64" xml:space="preserve" xmlns="http://www.w3.org/2000/svg" xmlns:xlink="http://www.w3.org/1999/xlink"><g><g><path d="M60,6h-4c-0.553,0-1,0.447-1,1v26h2h2h2V7C61,6.447,60.553,6,60,6z" style="fill:#00F4CB;"/></g><g><path d="M52,13h-4c-0.553,0-1,0.447-1,1v19h2h2h2V14C53,13.447,52.553,13,52,13z" style="fill:#00F4CB;"/></g><g><path d="M44,16h-4c-0.553,0-1,0.447-1,1v16h2h2h2V17C45,16.447,44.553,16,44,16z" style="fill:#00F4CB;"/></g><g><path d="M36,19h-4c-0.553,0-1,0.447-1,1v13h2h2h2V20C37,19.447,36.553,19,36,19z" style="fill:#00F4CB;"/></g><g><circle cx="15" cy="58" r="1"/></g><g><path d="M62,34H30c-0.553,0-1-0.447-1-1c0-0.552,0.447-1,1-1h32c0.553,0,1,0.448,1,1C63,33.553,62.553,34,62,34z"/></g><path d="M49,1h-6c-0.553,0-1,0.448-1,1s0.447,1,1,1h3.084c-4.857,6.794-11.698,11.729-19.465,14.2C24.103,13.463,19.834,11,15,11   C7.28,11,1,17.28,1,25c0,6.689,4.718,12.29,11,13.668V43h-1c-0.553,0-1,0.447-1,1v14c0,2.757,2.243,5,5,5s5-2.243,5-5V44   c0-0.553-0.447-1-1-1h-1v-4.332C24.282,37.29,29,31.689,29,25c0-2.161-0.507-4.201-1.385-6.03   C35.781,16.279,42.954,11.001,48,3.756V8c0,0.552,0.447,1,1,1s1-0.448,1-1V2C50,1.448,49.553,1,49,1z M18,58c0,1.654-1.346,3-3,3   s-3-1.346-3-3V45h6V58z M16,43h-2v-4.051C14.332,38.973,14.662,39,15,39s0.668-0.027,1-0.051V43z M27,25c0,6.617-5.383,12-12,12   S3,31.617,3,25s5.383-12,12-12c3.907,0,7.374,1.885,9.566,4.785c-0.722,0.186-1.45,0.348-2.185,0.492C20.551,16.27,17.924,15,15,15   C9.486,15,5,19.486,5,25s4.486,10,10,10s10-4.486,10-10c0-1.805-0.488-3.496-1.328-4.959c0.674-0.148,1.342-0.311,2.005-0.493   C26.517,21.186,27,23.036,27,25z M15,21c2.224,0,4.416-0.199,6.569-0.554C22.469,21.74,23,23.308,23,25c0,4.411-3.589,8-8,8   s-8-3.589-8-8s3.589-8,8-8c1.843,0,3.538,0.633,4.892,1.684C18.282,18.891,16.649,19,15,19c-0.553,0-1,0.448-1,1S14.447,21,15,21z"/><g><circle cx="33" cy="40" r="1"/></g><g><circle cx="33" cy="46" r="1"/></g><g><circle cx="33" cy="52" r="1"/></g><g><circle cx="33" cy="58" r="1"/></g><g><path d="M59,41H37c-0.553,0-1-0.447-1-1s0.447-1,1-1h22c0.553,0,1,0.447,1,1S59.553,41,59,41z"/></g><g><path d="M59,53H37c-0.553,0-1-0.447-1-1s0.447-1,1-1h22c0.553,0,1,0.447,1,1S59.553,53,59,53z"/></g><g><path d="M46,47h-9c-0.553,0-1-0.447-1-1s0.447-1,1-1h9c0.553,0,1,0.447,1,1S46.553,47,46,47z"/></g><g><path d="M59,47h-9c-0.553,0-1-0.447-1-1s0.447-1,1-1h9c0.553,0,1,0.447,1,1S59.553,47,59,47z"/></g><g><path d="M46,59h-9c-0.553,0-1-0.447-1-1s0.447-1,1-1h9c0.553,0,1,0.447,1,1S46.553,59,46,59z"/></g><g><path d="M59,59h-9c-0.553,0-1-0.447-1-1s0.447-1,1-1h9c0.553,0,1,0.447,1,1S59.553,59,59,59z"/></g></g></svg>