<svg xmlns="http://www.w3.org/2000/svg" xmlns:xlink="http://www.w3.org/1999/xlink" version="1.1" x="0px" y="0px" viewBox="0 0 24 30" fill="#ffffff" xml:space="preserve"><g><g><path d="M9.488,14.334C10.977,13.31,12,11.276,12,9.5C12,7.019,9.981,5,7.5,5S3,7.019,3,9.5c0,1.776,1.023,3.81,2.512,4.834    C4.2,14.867,2,15.985,2,17.5v4C2,21.776,2.224,22,2.5,22h10c0.276,0,0.5-0.224,0.5-0.5v-4C13,15.985,10.8,14.867,9.488,14.334z     M4,9.5C4,7.57,5.57,6,7.5,6S11,7.57,11,9.5c0,1.983-1.648,4.5-3.5,4.5S4,11.483,4,9.5z M12,21H3v-3.5    c0-0.891,2.069-1.985,3.582-2.5h1.837C9.931,15.515,12,16.609,12,17.5V21z"/><path d="M22,5.5C22,3.57,20.43,2,18.5,2S15,3.57,15,5.5c0,0.95,0.383,1.811,1,2.441V13.5c0,0.202,0.122,0.385,0.309,0.462    c0.188,0.077,0.402,0.035,0.545-0.108l1.646-1.646l1.646,1.646C20.242,13.949,20.37,14,20.5,14c0.064,0,0.129-0.013,0.191-0.038    C20.878,13.885,21,13.702,21,13.5V8c0-0.017-0.008-0.03-0.009-0.047C21.613,7.321,22,6.455,22,5.5z M18.5,3    C19.878,3,21,4.121,21,5.5S19.878,8,18.5,8S16,6.879,16,5.5S17.122,3,18.5,3z M18.854,11.146c-0.195-0.195-0.512-0.195-0.707,0    L17,12.293V8.648C17.457,8.867,17.961,9,18.5,9s1.043-0.133,1.5-0.352v3.645L18.854,11.146z"/></g></g><text x="0" y="39" fill="#000000" font-size="5px" font-weight="bold" font-family="'Helvetica Neue', Helvetica, Arial-Unicode, Arial, Sans-serif">Created by Ralf Schmitzer</text><text x="0" y="44" fill="#000000" font-size="5px" font-weight="bold" font-family="'Helvetica Neue', Helvetica, Arial-Unicode, Arial, Sans-serif">from the Noun Project</text></svg>
