<svg id="svg" version="1.1" width="400" height="89.01818181818182" viewBox="0 0 400 89.01818181818182" xmlns="http://www.w3.org/2000/svg" xmlns:xlink="http://www.w3.org/1999/xlink" ><g id="svgg"><path id="path0" d="" stroke="none" fill="#000000" fill-rule="evenodd"></path><path id="path1" d="" stroke="none" fill="#1c1c1c" fill-rule="evenodd"></path><path id="path2" d="" stroke="none" fill="#242424" fill-rule="evenodd"></path><path id="path3" d="" stroke="none" fill="#2d2d2d" fill-rule="evenodd"></path><path id="path4" d="M52.583 0.650 L 47.917 0.750 47.868 2.158 C 47.841 2.933,47.746 3.654,47.657 3.761 C 47.431 4.034,47.439 37.006,47.665 37.232 C 47.758 37.324,47.833 38.140,47.833 39.045 C 47.833 40.249,47.897 40.754,48.071 40.929 C 48.275 41.132,51.157 41.167,68.000 41.167 L 87.690 41.167 87.637 29.258 C 87.595 20.012,87.537 17.303,87.375 17.142 C 87.260 17.027,87.167 16.761,87.167 16.550 C 87.167 16.339,87.092 16.167,87.000 16.167 C 86.908 16.167,86.833 15.904,86.833 15.583 C 86.833 15.262,86.758 15.000,86.667 15.000 C 86.575 15.000,86.500 14.851,86.500 14.668 C 86.500 14.257,85.968 13.000,85.794 13.000 C 85.724 13.000,85.667 12.813,85.667 12.583 C 85.667 12.354,85.601 12.167,85.521 12.167 C 85.441 12.167,85.333 11.960,85.282 11.708 C 85.231 11.456,85.034 11.084,84.845 10.882 C 84.655 10.680,84.500 10.398,84.500 10.257 C 84.500 10.116,84.432 10.000,84.350 10.000 C 84.219 10.000,83.554 9.057,83.350 8.583 C 83.182 8.191,80.027 5.167,79.787 5.167 C 79.641 5.167,79.475 5.017,79.417 4.833 C 79.358 4.650,79.175 4.500,79.009 4.500 C 78.843 4.500,78.614 4.388,78.500 4.250 C 78.386 4.113,78.189 4.000,78.063 4.000 C 77.937 4.000,77.833 3.925,77.833 3.833 C 77.833 3.742,77.690 3.667,77.514 3.667 C 77.338 3.667,77.169 3.610,77.139 3.542 C 77.052 3.347,75.860 2.833,75.494 2.833 C 75.314 2.833,75.167 2.758,75.167 2.667 C 75.167 2.575,74.979 2.500,74.750 2.500 C 74.521 2.500,74.333 2.425,74.333 2.333 C 74.333 2.242,74.150 2.167,73.927 2.167 C 73.703 2.167,73.477 2.098,73.425 2.013 C 73.373 1.929,72.843 1.807,72.248 1.744 C 71.653 1.680,71.167 1.562,71.167 1.481 C 71.167 1.400,70.721 1.333,70.177 1.333 C 69.632 1.333,69.140 1.258,69.083 1.167 C 69.027 1.075,68.475 1.000,67.857 1.000 C 67.239 1.000,66.661 0.927,66.572 0.838 C 66.360 0.627,58.566 0.522,52.583 0.650 M21.500 0.832 C 21.500 0.929,21.009 1.000,20.343 1.000 C 19.707 1.000,19.140 1.075,19.083 1.167 C 19.027 1.258,18.685 1.333,18.323 1.333 C 17.962 1.333,17.667 1.400,17.667 1.481 C 17.667 1.562,17.180 1.680,16.585 1.744 C 15.990 1.807,15.461 1.929,15.409 2.013 C 15.356 2.098,15.131 2.167,14.907 2.167 C 14.683 2.167,14.500 2.242,14.500 2.333 C 14.500 2.425,14.362 2.500,14.192 2.500 C 13.912 2.500,13.204 2.777,12.461 3.177 C 12.301 3.263,12.020 3.333,11.836 3.333 C 11.651 3.333,11.500 3.408,11.500 3.500 C 11.500 3.592,11.387 3.667,11.250 3.667 C 11.112 3.667,11.000 3.727,11.000 3.801 C 11.000 3.875,10.681 4.075,10.292 4.246 C 9.902 4.416,9.462 4.693,9.314 4.861 C 9.166 5.029,8.971 5.167,8.882 5.167 C 8.793 5.167,8.414 5.467,8.040 5.833 C 7.666 6.200,7.269 6.500,7.158 6.500 C 6.932 6.500,6.333 7.133,6.333 7.372 C 6.333 7.457,5.996 7.864,5.583 8.276 C 5.171 8.689,4.833 9.099,4.833 9.187 C 4.833 9.275,4.678 9.513,4.489 9.715 C 4.299 9.918,4.103 10.285,4.053 10.531 C 4.003 10.777,3.870 11.014,3.756 11.058 C 3.459 11.172,2.833 12.436,2.833 12.922 C 2.833 13.148,2.758 13.333,2.667 13.333 C 2.575 13.333,2.500 13.446,2.500 13.583 C 2.500 13.721,2.425 13.833,2.333 13.833 C 2.242 13.833,2.167 14.016,2.167 14.240 C 2.167 14.464,2.098 14.690,2.013 14.742 C 1.929 14.794,1.807 15.324,1.744 15.918 C 1.680 16.513,1.562 17.000,1.481 17.000 C 1.400 17.000,1.333 17.412,1.333 17.917 C 1.333 18.421,1.258 18.833,1.167 18.833 C 1.071 18.833,1.000 19.350,1.000 20.050 C 1.000 20.719,0.924 21.343,0.830 21.437 C 0.652 21.615,0.721 35.685,0.918 39.292 L 1.021 41.167 20.928 41.167 L 40.835 41.167 40.792 20.958 L 40.750 0.750 31.125 0.707 C 24.739 0.678,21.500 0.721,21.500 0.832 M115.781 0.775 C 115.718 0.838,115.667 20.489,115.667 44.444 L 115.667 88.000 120.000 88.000 L 124.333 88.000 124.333 77.934 C 124.333 69.004,124.362 67.858,124.591 67.770 C 124.733 67.716,124.928 67.445,125.024 67.169 C 125.120 66.893,125.267 66.667,125.350 66.667 C 125.432 66.667,125.500 66.582,125.500 66.478 C 125.500 66.374,125.639 66.168,125.809 66.020 C 125.980 65.871,126.172 65.581,126.237 65.375 C 126.303 65.169,126.426 65.000,126.511 65.000 C 126.597 65.000,126.667 64.868,126.667 64.707 C 126.667 64.545,126.817 64.320,127.000 64.205 C 127.183 64.091,127.333 63.891,127.333 63.761 C 127.333 63.631,127.521 63.377,127.750 63.196 C 127.979 63.016,128.167 62.720,128.167 62.538 C 128.167 62.356,128.279 62.114,128.417 62.000 C 128.554 61.886,128.667 61.679,128.667 61.541 C 128.667 61.402,128.798 61.167,128.958 61.017 C 129.260 60.736,129.586 60.266,129.781 59.833 C 129.843 59.696,130.030 59.462,130.197 59.314 C 130.364 59.166,130.500 58.968,130.500 58.876 C 130.500 58.783,130.612 58.614,130.750 58.500 C 130.887 58.386,131.000 58.160,131.000 57.997 C 131.000 57.835,131.102 57.663,131.226 57.616 C 131.461 57.526,132.167 56.293,132.167 55.973 C 132.167 55.872,132.306 55.668,132.476 55.520 C 132.646 55.371,132.839 55.081,132.904 54.875 C 132.969 54.669,133.092 54.500,133.178 54.500 C 133.263 54.500,133.333 54.388,133.333 54.251 C 133.333 54.115,133.483 53.909,133.667 53.795 C 133.850 53.680,134.000 53.465,134.000 53.317 C 134.000 53.168,134.188 52.906,134.417 52.734 C 134.646 52.562,134.833 52.297,134.833 52.145 C 134.833 51.993,134.949 51.824,135.091 51.770 C 135.233 51.716,135.428 51.445,135.524 51.169 C 135.620 50.893,135.767 50.667,135.850 50.667 C 135.932 50.667,136.000 50.554,136.000 50.417 C 136.000 50.279,136.067 50.167,136.148 50.167 C 136.230 50.167,136.343 49.923,136.399 49.625 C 136.460 49.306,136.708 48.921,137.001 48.690 C 137.276 48.473,137.500 48.192,137.500 48.065 C 137.500 47.590,137.822 47.855,137.928 48.417 C 137.988 48.737,138.104 49.000,138.185 49.000 C 138.267 49.000,138.333 49.096,138.333 49.213 C 138.333 49.330,138.483 49.535,138.667 49.667 C 138.850 49.799,139.000 50.040,139.000 50.202 C 139.000 50.585,139.540 51.833,139.706 51.833 C 139.776 51.833,139.833 51.983,139.833 52.167 C 139.833 52.350,139.908 52.500,140.000 52.500 C 140.092 52.500,140.167 52.574,140.167 52.666 C 140.167 52.950,140.739 54.167,140.873 54.167 C 140.943 54.167,141.000 54.317,141.000 54.500 C 141.000 54.683,141.072 54.833,141.159 54.833 C 141.247 54.833,141.367 55.096,141.428 55.417 C 141.488 55.737,141.604 56.000,141.685 56.000 C 141.767 56.000,141.833 56.112,141.833 56.250 C 141.833 56.387,141.908 56.500,142.000 56.500 C 142.092 56.500,142.167 56.618,142.167 56.762 C 142.167 56.906,142.279 57.136,142.417 57.274 C 142.554 57.411,142.667 57.706,142.667 57.929 C 142.667 58.151,142.742 58.333,142.833 58.333 C 142.925 58.333,143.000 58.446,143.000 58.583 C 143.000 58.721,143.075 58.833,143.167 58.833 C 143.258 58.833,143.333 58.987,143.333 59.176 C 143.333 59.652,143.968 60.998,144.242 61.103 C 144.366 61.151,144.516 61.447,144.575 61.762 C 144.634 62.076,144.739 62.333,144.810 62.333 C 144.880 62.333,145.041 62.596,145.167 62.917 C 145.293 63.238,145.448 63.500,145.513 63.500 C 145.577 63.500,145.679 63.763,145.739 64.083 C 145.799 64.404,145.902 64.667,145.967 64.667 C 146.032 64.667,146.191 64.910,146.321 65.208 C 146.451 65.506,146.600 65.787,146.654 65.833 C 146.708 65.879,146.895 66.348,147.069 66.875 C 147.244 67.402,147.450 67.833,147.527 67.833 C 147.604 67.833,147.667 67.983,147.667 68.167 C 147.667 68.350,147.725 68.500,147.797 68.500 C 147.868 68.500,148.072 68.875,148.250 69.333 C 148.428 69.792,148.632 70.167,148.703 70.167 C 148.775 70.167,148.833 70.317,148.833 70.500 C 148.833 70.683,148.892 70.833,148.963 70.833 C 149.035 70.833,149.239 71.208,149.417 71.667 C 149.595 72.125,149.799 72.500,149.870 72.500 C 149.942 72.500,150.000 72.650,150.000 72.833 C 150.000 73.017,150.072 73.167,150.159 73.167 C 150.247 73.167,150.367 73.429,150.428 73.750 C 150.488 74.071,150.604 74.333,150.685 74.333 C 150.767 74.333,150.833 74.446,150.833 74.583 C 150.833 74.721,150.908 74.833,151.000 74.833 C 151.092 74.833,151.167 74.984,151.167 75.169 C 151.167 75.354,151.238 75.635,151.325 75.794 C 151.412 75.953,151.615 76.383,151.775 76.750 C 151.935 77.117,152.111 77.454,152.167 77.500 C 152.222 77.546,152.400 77.883,152.562 78.250 C 153.033 79.317,153.243 79.744,153.342 79.833 C 153.490 79.967,154.000 81.116,154.000 81.317 C 154.000 81.418,154.075 81.500,154.167 81.500 C 154.258 81.500,154.333 81.650,154.333 81.833 C 154.333 82.017,154.408 82.167,154.500 82.167 C 154.592 82.167,154.667 82.279,154.667 82.417 C 154.667 82.554,154.735 82.667,154.818 82.667 C 154.901 82.667,155.019 83.036,155.081 83.487 C 155.148 83.968,155.326 84.426,155.514 84.596 C 155.690 84.755,155.833 84.986,155.833 85.109 C 155.833 85.232,155.908 85.333,156.000 85.333 C 156.092 85.333,156.167 85.414,156.167 85.513 C 156.167 85.612,156.373 86.136,156.625 86.678 L 157.083 87.663 162.198 87.665 C 165.012 87.666,167.353 87.603,167.402 87.524 C 167.512 87.346,167.139 86.333,166.963 86.333 C 166.892 86.333,166.833 86.183,166.833 86.000 C 166.833 85.817,166.775 85.667,166.703 85.667 C 166.632 85.667,166.428 85.292,166.250 84.833 C 166.072 84.375,165.868 84.000,165.797 84.000 C 165.725 84.000,165.667 83.850,165.667 83.667 C 165.667 83.483,165.608 83.333,165.537 83.333 C 165.465 83.333,165.261 82.958,165.083 82.500 C 164.905 82.042,164.701 81.667,164.630 81.667 C 164.558 81.667,164.500 81.517,164.500 81.333 C 164.500 81.150,164.444 81.000,164.375 80.999 C 164.306 80.999,164.112 80.643,163.942 80.208 C 163.773 79.773,163.380 78.890,163.067 78.246 C 162.755 77.601,162.500 76.989,162.500 76.884 C 162.500 76.780,162.441 76.669,162.368 76.639 C 162.218 76.576,161.333 74.743,161.333 74.495 C 161.333 74.406,161.276 74.333,161.206 74.333 C 161.072 74.333,160.500 73.117,160.500 72.832 C 160.500 72.741,160.425 72.667,160.333 72.667 C 160.242 72.667,160.167 72.517,160.167 72.333 C 160.167 72.150,160.092 72.000,160.000 72.000 C 159.908 72.000,159.833 71.813,159.833 71.583 C 159.833 71.354,159.764 71.167,159.680 71.167 C 159.596 71.167,159.477 70.943,159.417 70.669 C 159.357 70.395,159.238 70.128,159.154 70.075 C 159.069 70.023,159.000 69.835,159.000 69.657 C 159.000 69.479,158.925 69.333,158.833 69.333 C 158.742 69.333,158.667 69.221,158.667 69.083 C 158.667 68.946,158.598 68.833,158.513 68.833 C 158.429 68.833,158.311 68.609,158.250 68.335 C 158.190 68.061,158.072 67.794,157.987 67.742 C 157.903 67.690,157.833 67.501,157.833 67.323 C 157.833 67.146,157.758 67.000,157.667 67.000 C 157.575 67.000,157.500 66.887,157.500 66.750 C 157.500 66.612,157.428 66.500,157.341 66.500 C 157.253 66.500,157.133 66.237,157.072 65.917 C 157.012 65.596,156.896 65.333,156.815 65.333 C 156.733 65.333,156.667 65.221,156.667 65.083 C 156.667 64.946,156.592 64.833,156.500 64.833 C 156.408 64.833,156.333 64.683,156.333 64.500 C 156.333 64.317,156.264 64.167,156.180 64.167 C 156.096 64.167,155.977 63.923,155.916 63.625 C 155.771 62.915,155.451 62.167,155.293 62.167 C 155.223 62.167,155.167 62.017,155.167 61.833 C 155.167 61.650,155.092 61.500,155.000 61.500 C 154.908 61.500,154.833 61.426,154.833 61.334 C 154.833 61.050,154.261 59.833,154.127 59.833 C 154.057 59.833,154.000 59.683,154.000 59.500 C 154.000 59.317,153.925 59.167,153.833 59.167 C 153.742 59.167,153.667 59.092,153.667 59.001 C 153.667 58.717,153.095 57.500,152.961 57.500 C 152.891 57.500,152.833 57.350,152.833 57.167 C 152.833 56.983,152.758 56.833,152.667 56.833 C 152.575 56.833,152.500 56.759,152.500 56.668 C 152.500 56.383,151.928 55.167,151.794 55.167 C 151.724 55.167,151.667 55.019,151.667 54.839 C 151.667 54.474,151.153 53.281,150.958 53.194 C 150.890 53.164,150.833 52.995,150.833 52.819 C 150.833 52.644,150.775 52.500,150.703 52.500 C 150.632 52.500,150.428 52.125,150.250 51.667 C 150.072 51.208,149.868 50.833,149.797 50.833 C 149.725 50.833,149.667 50.683,149.667 50.500 C 149.667 50.317,149.610 50.166,149.542 50.166 C 149.473 50.166,149.272 49.809,149.096 49.374 C 148.919 48.939,148.728 48.546,148.670 48.500 C 148.493 48.358,148.000 47.214,148.000 46.943 C 148.000 46.802,147.925 46.640,147.833 46.583 C 147.742 46.527,147.667 46.341,147.667 46.171 C 147.667 46.000,147.610 45.836,147.542 45.806 C 147.375 45.731,146.500 43.968,146.500 43.706 C 146.500 43.593,146.425 43.500,146.333 43.500 C 146.242 43.500,146.167 43.387,146.167 43.250 C 146.167 43.112,146.092 43.000,146.000 43.000 C 145.908 43.000,145.833 42.864,145.833 42.699 C 145.833 42.533,145.723 42.251,145.589 42.074 C 145.454 41.896,145.342 41.619,145.339 41.458 C 145.336 41.298,145.258 41.167,145.167 41.167 C 145.075 41.167,145.000 41.054,145.000 40.917 C 145.000 40.779,144.925 40.667,144.833 40.667 C 144.742 40.667,144.667 40.531,144.667 40.365 C 144.667 40.199,144.557 39.918,144.422 39.740 C 144.287 39.562,144.175 39.285,144.172 39.125 C 144.169 38.965,144.092 38.833,144.000 38.833 C 143.908 38.833,143.833 38.571,143.833 38.250 C 143.833 37.929,143.897 37.667,143.974 37.667 C 144.051 37.667,144.256 37.404,144.428 37.083 C 144.601 36.763,144.800 36.500,144.871 36.500 C 144.942 36.500,145.000 36.358,145.000 36.184 C 145.000 36.011,145.114 35.825,145.253 35.772 C 145.391 35.719,145.579 35.505,145.669 35.296 C 145.899 34.764,146.205 34.297,146.518 34.002 C 146.665 33.864,146.839 33.581,146.904 33.375 C 146.969 33.169,147.092 33.000,147.178 33.000 C 147.263 33.000,147.333 32.858,147.333 32.684 C 147.333 32.511,147.439 32.328,147.569 32.279 C 147.698 32.229,147.901 31.921,148.019 31.594 C 148.137 31.267,148.294 31.000,148.367 31.000 C 148.440 31.000,148.500 30.858,148.500 30.684 C 148.500 30.511,148.616 30.324,148.758 30.270 C 148.900 30.216,149.095 29.945,149.191 29.669 C 149.287 29.393,149.434 29.167,149.516 29.167 C 149.599 29.167,149.667 29.088,149.667 28.993 C 149.667 28.897,149.854 28.617,150.083 28.369 C 150.313 28.122,150.500 27.842,150.500 27.747 C 150.500 27.652,150.650 27.465,150.833 27.333 C 151.017 27.201,151.167 27.006,151.167 26.900 C 151.167 26.794,151.279 26.614,151.417 26.500 C 151.554 26.386,151.667 26.152,151.667 25.980 C 151.667 25.807,151.742 25.667,151.833 25.667 C 151.925 25.667,152.000 25.554,152.000 25.417 C 152.000 25.279,152.075 25.167,152.167 25.167 C 152.258 25.167,152.333 25.026,152.333 24.854 C 152.333 24.682,152.446 24.447,152.583 24.333 C 152.721 24.219,152.833 24.050,152.833 23.957 C 152.833 23.865,152.973 23.668,153.143 23.520 C 153.313 23.371,153.506 23.081,153.571 22.875 C 153.636 22.669,153.759 22.500,153.845 22.500 C 153.930 22.500,154.000 22.387,154.000 22.250 C 154.000 22.113,154.062 22.000,154.139 22.000 C 154.215 22.000,154.380 21.794,154.507 21.542 C 154.633 21.290,154.893 20.933,155.085 20.750 C 155.439 20.412,156.000 19.349,156.000 19.018 C 156.000 18.918,156.150 18.742,156.333 18.628 C 156.517 18.513,156.667 18.288,156.667 18.127 C 156.667 17.965,156.737 17.833,156.822 17.833 C 156.908 17.833,157.031 17.665,157.096 17.458 C 157.161 17.252,157.354 16.962,157.524 16.814 C 157.694 16.666,157.833 16.459,157.833 16.355 C 157.833 16.252,157.903 16.167,157.989 16.167 C 158.074 16.167,158.197 15.998,158.263 15.792 C 158.328 15.585,158.520 15.295,158.691 15.147 C 158.861 14.999,159.000 14.764,159.000 14.626 C 159.000 14.487,159.112 14.281,159.250 14.167 C 159.387 14.053,159.500 13.856,159.500 13.730 C 159.500 13.603,159.575 13.500,159.667 13.500 C 159.758 13.500,159.833 13.387,159.833 13.250 C 159.833 13.112,159.908 13.000,160.000 13.000 C 160.092 13.000,160.167 12.859,160.167 12.687 C 160.167 12.515,160.279 12.281,160.417 12.167 C 160.554 12.053,160.667 11.872,160.667 11.766 C 160.667 11.660,160.817 11.465,161.000 11.333 C 161.183 11.201,161.333 11.006,161.333 10.900 C 161.333 10.794,161.446 10.614,161.583 10.500 C 161.721 10.386,161.833 10.157,161.833 9.991 C 161.833 9.825,161.983 9.642,162.167 9.583 C 162.350 9.525,162.500 9.346,162.500 9.184 C 162.500 9.023,162.688 8.715,162.917 8.500 C 163.146 8.285,163.333 8.009,163.333 7.888 C 163.333 7.766,163.391 7.667,163.461 7.667 C 163.531 7.667,163.719 7.385,163.878 7.042 C 164.251 6.238,164.517 5.817,164.851 5.502 C 164.998 5.364,165.172 5.081,165.237 4.875 C 165.303 4.669,165.426 4.500,165.511 4.500 C 165.597 4.500,165.667 4.428,165.667 4.341 C 165.667 4.203,166.235 3.257,166.623 2.750 C 166.693 2.658,166.862 2.358,167.000 2.083 C 167.137 1.808,167.315 1.535,167.396 1.477 C 167.678 1.272,167.309 1.000,166.750 1.000 C 166.440 1.000,166.140 0.925,166.083 0.833 C 166.019 0.729,164.231 0.667,161.270 0.667 L 156.560 0.667 156.197 1.085 C 155.997 1.314,155.833 1.596,155.833 1.711 C 155.833 1.826,155.690 2.009,155.515 2.119 C 155.340 2.228,155.146 2.546,155.085 2.825 C 155.024 3.105,154.904 3.333,154.820 3.333 C 154.736 3.333,154.667 3.475,154.667 3.649 C 154.667 3.822,154.551 4.009,154.409 4.063 C 154.267 4.118,154.072 4.388,153.976 4.664 C 153.880 4.941,153.733 5.167,153.650 5.167 C 153.568 5.167,153.500 5.263,153.500 5.380 C 153.500 5.497,153.350 5.701,153.167 5.833 C 152.983 5.965,152.833 6.197,152.833 6.347 C 152.833 6.497,152.646 6.761,152.417 6.933 C 152.188 7.105,152.000 7.331,152.000 7.436 C 152.000 7.540,151.887 7.719,151.750 7.833 C 151.612 7.947,151.500 8.182,151.500 8.354 C 151.500 8.526,151.425 8.667,151.333 8.667 C 151.242 8.667,151.167 8.779,151.167 8.917 C 151.167 9.054,151.092 9.167,151.000 9.167 C 150.908 9.167,150.833 9.319,150.833 9.505 C 150.833 9.691,150.721 9.887,150.583 9.940 C 150.446 9.992,150.333 10.150,150.333 10.290 C 150.333 10.430,150.194 10.666,150.024 10.814 C 149.854 10.962,149.661 11.252,149.596 11.458 C 149.531 11.665,149.408 11.833,149.322 11.833 C 149.237 11.833,149.167 11.945,149.167 12.082 C 149.167 12.219,149.017 12.424,148.833 12.539 C 148.650 12.653,148.500 12.881,148.500 13.045 C 148.500 13.209,148.387 13.387,148.250 13.440 C 148.112 13.492,148.000 13.650,148.000 13.790 C 148.000 13.930,147.869 14.167,147.708 14.316 C 147.384 14.619,146.833 15.596,146.833 15.869 C 146.833 15.965,146.702 16.167,146.542 16.316 C 146.217 16.619,145.908 17.077,145.684 17.590 C 145.602 17.777,145.414 18.030,145.267 18.152 C 145.120 18.274,145.000 18.444,145.000 18.528 C 145.000 18.613,144.813 18.856,144.583 19.069 C 144.354 19.281,144.167 19.561,144.167 19.691 C 144.167 19.820,144.017 20.035,143.833 20.167 C 143.650 20.299,143.500 20.469,143.500 20.546 C 143.500 20.925,142.563 22.609,142.125 23.017 C 141.965 23.167,141.833 23.365,141.833 23.457 C 141.833 23.550,141.721 23.719,141.583 23.833 C 141.446 23.947,141.333 24.174,141.333 24.336 C 141.333 24.498,141.220 24.675,141.081 24.728 C 140.942 24.781,140.755 24.995,140.665 25.204 C 140.437 25.731,140.131 26.200,139.819 26.498 C 139.674 26.636,139.416 27.069,139.246 27.458 C 139.075 27.848,138.875 28.167,138.801 28.167 C 138.727 28.167,138.667 28.279,138.667 28.417 C 138.667 28.554,138.603 28.667,138.526 28.667 C 138.449 28.667,138.244 28.929,138.072 29.250 C 137.899 29.571,137.700 29.833,137.629 29.833 C 137.558 29.833,137.500 29.975,137.500 30.149 C 137.500 30.322,137.386 30.508,137.247 30.561 C 137.109 30.615,136.921 30.829,136.831 31.037 C 136.598 31.578,136.294 32.038,135.969 32.341 C 135.815 32.485,135.634 32.824,135.568 33.093 C 135.501 33.363,135.309 33.705,135.140 33.853 C 134.971 34.001,134.833 34.207,134.833 34.311 C 134.833 34.415,134.766 34.500,134.685 34.500 C 134.603 34.500,134.489 34.688,134.432 34.917 C 134.374 35.146,134.253 35.333,134.163 35.333 C 134.074 35.333,134.000 35.454,134.000 35.601 C 134.000 35.748,133.813 36.016,133.583 36.196 C 133.354 36.377,133.167 36.664,133.167 36.834 C 133.167 37.005,133.017 37.192,132.833 37.250 C 132.650 37.308,132.500 37.492,132.500 37.657 C 132.500 37.823,132.387 38.053,132.250 38.167 C 132.112 38.281,132.000 38.450,132.000 38.543 C 132.000 38.635,131.865 38.832,131.700 38.980 C 131.406 39.244,130.833 40.324,130.833 40.613 C 130.833 40.694,130.683 40.868,130.500 41.000 C 130.317 41.132,130.167 41.376,130.167 41.542 C 130.167 41.708,130.054 41.887,129.917 41.940 C 129.779 41.992,129.666 42.159,129.665 42.309 C 129.664 42.460,129.447 42.755,129.182 42.964 C 128.917 43.173,128.654 43.529,128.597 43.755 C 128.540 43.982,128.420 44.167,128.330 44.167 C 128.240 44.167,128.167 44.263,128.167 44.380 C 128.167 44.497,128.019 44.699,127.839 44.829 C 127.660 44.959,127.463 45.294,127.402 45.574 C 127.341 45.854,127.245 46.121,127.187 46.167 C 127.037 46.287,126.692 46.855,126.502 47.296 C 126.412 47.505,126.225 47.719,126.086 47.772 C 125.947 47.825,125.833 47.984,125.833 48.124 C 125.833 48.264,125.646 48.552,125.417 48.765 C 125.188 48.977,125.000 49.249,125.000 49.369 C 125.000 49.488,124.850 49.680,124.667 49.794 C 124.335 50.002,124.334 49.942,124.292 25.376 L 124.250 0.750 120.072 0.706 C 117.774 0.681,115.843 0.712,115.781 0.775 M294.333 44.333 L 294.333 88.000 306.333 88.000 C 314.222 88.000,318.333 87.943,318.333 87.833 C 318.333 87.729,319.302 87.667,320.907 87.667 C 322.322 87.667,323.520 87.603,323.568 87.525 C 323.616 87.447,324.308 87.338,325.105 87.281 C 325.902 87.225,326.632 87.101,326.727 87.006 C 326.822 86.911,327.072 86.833,327.283 86.833 C 327.494 86.833,327.667 86.758,327.667 86.667 C 327.667 86.575,327.854 86.500,328.083 86.500 C 328.313 86.500,328.500 86.425,328.500 86.333 C 328.500 86.242,328.636 86.167,328.801 86.167 C 328.967 86.167,329.249 86.057,329.426 85.922 C 329.604 85.787,329.881 85.675,330.042 85.672 C 330.202 85.669,330.333 85.592,330.333 85.500 C 330.333 85.408,330.446 85.333,330.583 85.333 C 330.721 85.333,330.833 85.258,330.833 85.167 C 330.833 85.075,330.969 85.000,331.135 85.000 C 331.301 85.000,331.582 84.890,331.760 84.755 C 331.938 84.621,332.207 84.508,332.357 84.505 C 332.508 84.502,332.676 84.384,332.730 84.242 C 332.784 84.100,333.036 83.912,333.289 83.824 C 333.543 83.735,333.900 83.438,334.083 83.164 C 334.267 82.889,334.529 82.628,334.667 82.583 C 334.804 82.539,335.067 82.277,335.250 82.001 C 335.433 81.726,335.627 81.501,335.681 81.500 C 335.845 81.500,337.333 79.978,337.333 79.811 C 337.333 79.726,337.596 79.393,337.917 79.072 C 338.237 78.751,338.500 78.377,338.500 78.239 C 338.500 78.102,338.612 77.946,338.750 77.894 C 338.887 77.841,339.000 77.683,339.000 77.543 C 339.000 77.404,339.131 77.167,339.292 77.017 C 339.640 76.692,339.973 76.192,340.108 75.792 C 340.161 75.631,340.272 75.500,340.353 75.500 C 340.434 75.500,340.500 75.350,340.500 75.167 C 340.500 74.983,340.566 74.833,340.647 74.833 C 340.728 74.833,340.934 74.384,341.105 73.835 C 341.277 73.286,341.473 72.836,341.542 72.835 C 341.610 72.834,341.667 72.646,341.667 72.417 C 341.667 72.188,341.742 72.000,341.833 72.000 C 341.925 72.000,342.000 71.859,342.000 71.686 C 342.000 71.513,342.112 71.157,342.249 70.894 C 342.386 70.631,342.498 70.173,342.499 69.875 C 342.500 69.577,342.575 69.333,342.667 69.333 C 342.758 69.333,342.833 69.146,342.833 68.917 C 342.833 68.688,342.900 68.500,342.982 68.500 C 343.065 68.500,343.169 68.219,343.215 67.875 C 343.262 67.531,343.380 66.950,343.479 66.583 C 343.578 66.217,343.661 65.560,343.663 65.125 C 343.665 64.690,343.742 64.333,343.833 64.333 C 343.925 64.333,344.000 63.973,344.000 63.533 C 344.000 63.093,344.094 62.640,344.208 62.525 C 344.372 62.361,344.417 58.507,344.417 44.380 C 344.417 30.180,344.373 26.430,344.208 26.375 C 344.073 26.330,344.000 25.960,344.000 25.319 C 344.000 24.777,343.936 24.333,343.857 24.333 C 343.779 24.333,343.663 23.715,343.600 22.959 C 343.537 22.204,343.414 21.514,343.326 21.426 C 343.238 21.338,343.167 21.061,343.167 20.810 C 343.167 20.559,343.092 20.307,343.000 20.250 C 342.908 20.193,342.833 19.926,342.833 19.657 C 342.833 19.387,342.769 19.167,342.689 19.167 C 342.610 19.167,342.500 18.836,342.444 18.431 C 342.389 18.026,342.191 17.424,342.005 17.092 C 341.819 16.761,341.667 16.342,341.667 16.162 C 341.667 15.981,341.601 15.833,341.521 15.833 C 341.441 15.833,341.329 15.541,341.272 15.184 C 341.180 14.607,340.577 13.222,340.321 13.000 C 340.268 12.954,340.083 12.673,339.910 12.375 C 339.737 12.077,339.536 11.833,339.464 11.833 C 339.392 11.833,339.333 11.683,339.333 11.500 C 339.333 11.317,339.257 11.167,339.164 11.167 C 339.071 11.167,338.869 10.904,338.716 10.583 C 338.563 10.262,338.377 10.000,338.302 10.000 C 338.228 10.000,338.167 9.922,338.167 9.826 C 338.167 9.730,337.979 9.450,337.750 9.203 C 337.521 8.956,337.333 8.697,337.333 8.627 C 337.333 8.446,334.854 6.000,334.670 6.000 C 334.585 6.000,334.261 5.737,333.950 5.417 C 333.638 5.096,333.297 4.833,333.191 4.833 C 333.086 4.833,333.000 4.770,333.000 4.692 C 333.000 4.614,332.681 4.410,332.292 4.239 C 331.902 4.067,331.471 3.808,331.333 3.663 C 331.099 3.417,330.704 3.212,329.375 2.648 C 329.077 2.522,328.833 2.362,328.833 2.293 C 328.833 2.223,328.692 2.167,328.520 2.167 C 328.348 2.167,327.938 2.054,327.609 1.917 C 327.280 1.779,326.708 1.667,326.339 1.667 C 325.969 1.667,325.667 1.592,325.667 1.500 C 325.667 1.402,325.087 1.333,324.260 1.333 C 323.486 1.333,322.807 1.258,322.750 1.167 C 322.683 1.059,319.609 1.000,314.073 1.000 C 308.469 1.000,305.500 0.942,305.500 0.833 C 305.500 0.726,303.528 0.667,299.917 0.667 L 294.333 0.667 294.333 44.333 M356.000 44.333 L 356.000 88.000 377.750 88.000 L 399.500 88.000 399.500 82.750 L 399.500 77.500 384.010 77.500 C 373.863 77.500,368.484 77.443,368.417 77.333 C 368.359 77.240,367.582 77.167,366.657 77.167 L 365.000 77.167 365.000 63.417 L 365.000 49.668 382.208 49.626 L 399.417 49.583 399.461 44.542 L 399.505 39.500 389.502 39.500 C 382.945 39.500,379.500 39.443,379.500 39.333 C 379.500 39.225,376.972 39.167,372.250 39.167 L 365.000 39.167 365.000 25.333 L 365.000 11.500 366.750 11.500 C 367.806 11.500,368.500 11.434,368.500 11.333 C 368.500 11.223,373.779 11.167,384.002 11.167 L 399.505 11.167 399.461 5.958 L 399.417 0.750 377.708 0.708 L 356.000 0.665 356.000 44.333 M191.917 1.167 C 191.860 1.258,191.556 1.333,191.240 1.333 C 190.925 1.333,190.667 1.408,190.667 1.500 C 190.667 1.592,190.439 1.667,190.161 1.667 C 189.883 1.667,189.387 1.779,189.058 1.917 C 188.729 2.054,188.318 2.167,188.146 2.167 C 187.974 2.167,187.833 2.242,187.833 2.333 C 187.833 2.425,187.683 2.500,187.500 2.500 C 187.317 2.500,187.167 2.575,187.167 2.667 C 187.167 2.758,187.092 2.833,187.001 2.833 C 186.717 2.833,185.500 3.405,185.500 3.539 C 185.500 3.609,185.350 3.667,185.167 3.667 C 184.983 3.667,184.833 3.742,184.833 3.833 C 184.833 3.925,184.721 4.000,184.583 4.000 C 184.446 4.000,184.333 4.070,184.333 4.155 C 184.333 4.241,184.165 4.364,183.958 4.429 C 183.752 4.494,183.462 4.687,183.314 4.857 C 183.166 5.027,182.953 5.167,182.842 5.167 C 182.594 5.167,178.833 8.949,178.833 9.199 C 178.833 9.297,178.694 9.499,178.524 9.647 C 178.354 9.795,178.161 10.085,178.096 10.292 C 178.031 10.498,177.908 10.667,177.822 10.667 C 177.737 10.667,177.667 10.779,177.667 10.915 C 177.667 11.052,177.517 11.258,177.333 11.372 C 177.150 11.487,177.000 11.714,177.000 11.879 C 177.000 12.043,176.887 12.220,176.750 12.273 C 176.612 12.326,176.500 12.505,176.500 12.671 C 176.500 12.836,176.444 12.997,176.375 13.028 C 176.187 13.112,175.333 14.794,175.333 15.082 C 175.333 15.220,175.277 15.334,175.208 15.335 C 175.000 15.337,174.667 16.201,174.666 16.742 C 174.665 17.021,174.553 17.465,174.416 17.727 C 174.279 17.990,174.167 18.421,174.167 18.686 C 174.167 18.950,174.092 19.167,174.000 19.167 C 173.908 19.167,173.833 19.354,173.833 19.583 C 173.833 19.813,173.766 20.000,173.684 20.000 C 173.601 20.000,173.481 20.525,173.417 21.167 C 173.352 21.808,173.232 22.333,173.150 22.333 C 173.067 22.333,173.000 22.629,173.000 22.990 C 173.000 23.351,172.925 23.693,172.833 23.750 C 172.742 23.807,172.667 24.209,172.667 24.643 C 172.667 25.078,172.573 25.527,172.458 25.642 C 172.294 25.806,172.250 29.786,172.250 44.417 C 172.250 59.048,172.294 63.028,172.458 63.192 C 172.573 63.306,172.667 63.760,172.667 64.200 C 172.667 64.640,172.742 65.000,172.833 65.000 C 172.925 65.000,173.000 65.337,173.000 65.750 C 173.000 66.162,173.066 66.500,173.147 66.500 C 173.228 66.500,173.347 66.987,173.410 67.582 C 173.474 68.176,173.595 68.706,173.680 68.758 C 173.764 68.810,173.833 69.037,173.833 69.262 C 173.833 69.640,174.112 70.304,174.352 70.500 C 174.409 70.546,174.508 71.015,174.573 71.542 C 174.638 72.069,174.760 72.500,174.845 72.500 C 174.930 72.500,175.000 72.638,175.000 72.808 C 175.000 73.127,175.340 73.945,175.771 74.667 C 175.908 74.896,176.062 75.215,176.113 75.375 C 176.164 75.535,176.272 75.667,176.353 75.667 C 176.434 75.667,176.500 75.817,176.500 76.000 C 176.500 76.183,176.570 76.333,176.655 76.333 C 176.741 76.333,176.864 76.502,176.929 76.708 C 176.994 76.915,177.187 77.205,177.357 77.353 C 177.527 77.501,177.667 77.747,177.667 77.900 C 177.667 78.052,177.779 78.220,177.917 78.273 C 178.054 78.326,178.167 78.462,178.167 78.575 C 178.167 78.689,178.317 78.917,178.500 79.083 C 178.683 79.249,178.833 79.476,178.833 79.588 C 178.833 79.700,179.096 80.015,179.417 80.289 C 179.737 80.563,180.000 80.910,180.000 81.060 C 180.000 81.211,180.109 81.333,180.242 81.333 C 180.375 81.333,181.001 81.858,181.632 82.500 C 182.264 83.142,182.868 83.667,182.975 83.667 C 183.082 83.667,183.332 83.854,183.531 84.083 C 183.730 84.313,183.992 84.500,184.113 84.500 C 184.234 84.500,184.333 84.575,184.333 84.667 C 184.333 84.758,184.486 84.833,184.672 84.833 C 184.858 84.833,185.054 84.946,185.106 85.083 C 185.159 85.221,185.344 85.333,185.518 85.333 C 185.691 85.333,185.833 85.408,185.833 85.500 C 185.833 85.592,185.946 85.667,186.083 85.667 C 186.221 85.667,186.333 85.737,186.333 85.823 C 186.333 85.909,186.671 86.030,187.083 86.092 C 187.496 86.154,187.833 86.271,187.833 86.352 C 187.833 86.434,187.946 86.500,188.083 86.500 C 188.221 86.500,188.333 86.575,188.333 86.667 C 188.333 86.758,188.543 86.833,188.800 86.833 C 189.057 86.833,189.350 86.916,189.451 87.018 C 189.553 87.120,190.132 87.242,190.739 87.291 C 191.346 87.340,191.882 87.444,191.931 87.523 C 192.047 87.710,202.333 87.711,202.333 87.524 C 202.333 87.446,202.870 87.337,203.526 87.282 C 204.182 87.227,204.797 87.103,204.892 87.008 C 204.988 86.912,205.239 86.833,205.450 86.833 C 205.661 86.833,205.833 86.758,205.833 86.667 C 205.833 86.575,206.021 86.500,206.250 86.500 C 206.479 86.500,206.667 86.428,206.667 86.341 C 206.667 86.253,206.929 86.133,207.250 86.072 C 207.571 86.012,207.833 85.896,207.833 85.815 C 207.833 85.733,207.983 85.667,208.167 85.667 C 208.350 85.667,208.500 85.592,208.500 85.500 C 208.500 85.408,208.612 85.333,208.750 85.333 C 208.887 85.333,209.000 85.266,209.000 85.185 C 209.000 85.103,209.188 84.989,209.417 84.932 C 209.646 84.874,209.833 84.753,209.833 84.663 C 209.833 84.574,209.965 84.500,210.127 84.500 C 210.288 84.500,210.513 84.350,210.628 84.167 C 210.742 83.983,210.932 83.833,211.050 83.833 C 211.168 83.833,211.540 83.533,211.877 83.167 C 212.214 82.800,212.578 82.500,212.686 82.500 C 212.915 82.500,214.833 80.604,214.833 80.378 C 214.833 80.294,215.021 80.049,215.250 79.833 C 215.479 79.618,215.667 79.377,215.667 79.297 C 215.667 79.217,215.854 78.950,216.083 78.703 C 216.313 78.456,216.500 78.186,216.500 78.105 C 216.500 78.023,216.638 77.834,216.806 77.686 C 216.974 77.538,217.251 77.098,217.421 76.708 C 217.591 76.319,217.791 76.000,217.865 76.000 C 217.939 76.000,218.000 75.887,218.000 75.750 C 218.000 75.612,218.075 75.500,218.167 75.500 C 218.258 75.500,218.333 75.350,218.333 75.167 C 218.333 74.983,218.407 74.833,218.498 74.833 C 218.589 74.833,218.711 74.532,218.770 74.163 C 218.829 73.794,218.942 73.452,219.022 73.403 C 219.102 73.354,219.167 73.131,219.167 72.907 C 219.167 72.683,219.242 72.500,219.333 72.500 C 219.425 72.500,219.500 72.359,219.500 72.186 C 219.500 72.013,219.612 71.657,219.749 71.394 C 219.886 71.131,219.998 70.748,219.999 70.542 C 220.000 70.335,220.075 70.167,220.167 70.167 C 220.258 70.167,220.333 69.979,220.333 69.750 C 220.333 69.521,220.408 69.333,220.500 69.333 C 220.592 69.333,220.667 69.075,220.667 68.760 C 220.667 68.444,220.737 68.143,220.824 68.089 C 220.910 68.036,221.032 67.467,221.096 66.826 C 221.159 66.184,221.276 65.619,221.355 65.570 C 221.435 65.521,221.500 65.185,221.500 64.823 C 221.500 64.462,221.575 64.167,221.667 64.167 C 221.762 64.167,221.833 63.671,221.833 63.014 C 221.833 62.240,221.902 61.838,222.042 61.792 C 222.207 61.737,222.250 58.137,222.250 44.536 C 222.250 31.009,222.206 27.306,222.042 27.142 C 221.916 27.016,221.833 26.484,221.833 25.800 C 221.833 25.156,221.761 24.667,221.667 24.667 C 221.575 24.667,221.500 24.254,221.500 23.750 C 221.500 23.246,221.433 22.833,221.350 22.833 C 221.268 22.833,221.148 22.308,221.083 21.667 C 221.019 21.025,220.899 20.500,220.816 20.500 C 220.734 20.500,220.667 20.313,220.667 20.083 C 220.667 19.854,220.592 19.667,220.500 19.667 C 220.408 19.667,220.333 19.404,220.333 19.083 C 220.333 18.762,220.258 18.500,220.167 18.500 C 220.075 18.500,220.000 18.331,219.999 18.125 C 219.998 17.919,219.886 17.535,219.749 17.273 C 219.612 17.010,219.500 16.654,219.500 16.481 C 219.500 16.308,219.444 16.166,219.375 16.165 C 219.206 16.164,218.833 15.339,218.833 14.968 C 218.833 14.583,218.294 13.333,218.127 13.333 C 218.057 13.333,218.000 13.183,218.000 13.000 C 218.000 12.817,217.930 12.667,217.845 12.667 C 217.759 12.667,217.636 12.498,217.571 12.292 C 217.506 12.085,217.313 11.795,217.143 11.647 C 216.973 11.499,216.833 11.293,216.833 11.189 C 216.833 11.085,216.760 11.000,216.670 11.000 C 216.580 11.000,216.461 10.821,216.406 10.602 C 216.351 10.383,216.125 10.046,215.903 9.853 C 215.681 9.660,215.500 9.390,215.500 9.253 C 215.500 9.115,215.350 8.909,215.167 8.795 C 214.983 8.680,214.833 8.496,214.833 8.385 C 214.833 8.151,213.226 6.500,212.999 6.500 C 212.915 6.500,212.549 6.200,212.186 5.833 C 211.823 5.467,211.426 5.167,211.303 5.167 C 211.180 5.167,210.943 4.986,210.778 4.765 C 210.612 4.545,210.238 4.266,209.946 4.146 C 209.655 4.027,209.275 3.799,209.102 3.639 C 208.677 3.247,207.777 2.833,207.350 2.833 C 207.157 2.833,207.000 2.758,207.000 2.667 C 207.000 2.575,206.850 2.500,206.667 2.500 C 206.483 2.500,206.333 2.441,206.333 2.370 C 206.333 2.144,205.290 1.825,204.208 1.720 C 203.635 1.664,203.167 1.554,203.167 1.476 C 203.167 1.397,202.642 1.333,202.000 1.333 C 201.333 1.333,200.833 1.262,200.833 1.167 C 200.833 1.060,199.253 1.000,196.427 1.000 C 193.668 1.000,191.981 1.062,191.917 1.167 M252.667 1.167 C 252.667 1.258,252.371 1.333,252.010 1.333 C 251.649 1.333,251.307 1.408,251.250 1.500 C 251.193 1.592,250.903 1.667,250.605 1.667 C 250.307 1.667,249.918 1.777,249.740 1.911 C 249.562 2.046,249.248 2.158,249.042 2.161 C 248.835 2.164,248.667 2.242,248.667 2.333 C 248.667 2.425,248.517 2.500,248.333 2.500 C 248.150 2.500,248.000 2.575,248.000 2.667 C 248.000 2.758,247.843 2.833,247.650 2.833 C 247.228 2.833,246.330 3.244,245.898 3.633 C 245.725 3.789,245.302 4.047,244.958 4.206 C 244.615 4.365,244.333 4.571,244.333 4.664 C 244.333 4.757,244.217 4.833,244.076 4.833 C 243.934 4.833,243.631 5.021,243.402 5.250 C 243.172 5.479,242.917 5.667,242.834 5.667 C 242.640 5.667,240.167 8.135,240.167 8.328 C 240.167 8.408,239.839 8.801,239.439 9.201 C 239.039 9.601,238.659 10.095,238.595 10.298 C 238.530 10.501,238.422 10.667,238.353 10.667 C 238.285 10.667,238.126 10.929,238.000 11.250 C 237.874 11.571,237.718 11.833,237.654 11.833 C 237.589 11.833,237.489 12.021,237.432 12.250 C 237.374 12.479,237.253 12.667,237.163 12.667 C 237.074 12.667,237.000 12.817,237.000 13.000 C 237.000 13.183,236.943 13.333,236.873 13.333 C 236.739 13.333,236.167 14.550,236.167 14.834 C 236.167 14.926,236.092 15.000,236.000 15.000 C 235.908 15.000,235.833 15.188,235.833 15.417 C 235.833 15.646,235.758 15.833,235.667 15.833 C 235.575 15.833,235.500 15.983,235.500 16.167 C 235.500 16.350,235.425 16.500,235.333 16.500 C 235.242 16.500,235.166 16.669,235.166 16.875 C 235.165 17.081,235.053 17.465,234.916 17.727 C 234.779 17.990,234.667 18.346,234.667 18.519 C 234.667 18.692,234.592 18.833,234.500 18.833 C 234.408 18.833,234.333 19.096,234.333 19.417 C 234.333 19.737,234.267 20.000,234.186 20.000 C 234.106 20.000,233.986 20.712,233.921 21.583 C 233.856 22.454,233.734 23.167,233.651 23.167 C 233.568 23.167,233.500 23.542,233.500 24.000 C 233.500 24.458,233.425 24.833,233.333 24.833 C 233.239 24.833,233.167 25.322,233.167 25.967 C 233.167 26.643,233.084 27.183,232.961 27.306 C 232.661 27.605,232.663 61.360,232.962 61.460 C 233.097 61.505,233.167 61.918,233.167 62.681 C 233.167 63.338,233.238 63.833,233.333 63.833 C 233.425 63.833,233.500 64.204,233.500 64.657 C 233.500 65.110,233.569 65.523,233.654 65.576 C 233.739 65.628,233.862 66.347,233.926 67.173 C 233.991 67.998,234.109 68.714,234.188 68.763 C 234.268 68.813,234.333 69.111,234.333 69.427 C 234.333 69.742,234.408 70.000,234.500 70.000 C 234.592 70.000,234.667 70.188,234.667 70.417 C 234.667 70.646,234.742 70.833,234.833 70.833 C 234.925 70.833,235.000 70.983,235.000 71.166 C 235.000 71.576,235.532 72.833,235.706 72.833 C 235.776 72.833,235.833 73.021,235.833 73.250 C 235.833 73.479,235.900 73.667,235.981 73.667 C 236.063 73.667,236.179 73.929,236.239 74.250 C 236.299 74.571,236.420 74.833,236.508 74.833 C 236.595 74.833,236.667 74.983,236.667 75.167 C 236.667 75.350,236.742 75.500,236.833 75.500 C 236.925 75.500,237.000 75.612,237.000 75.750 C 237.000 75.887,237.061 76.000,237.135 76.000 C 237.287 76.000,237.833 77.166,237.833 77.490 C 237.833 77.607,238.021 77.850,238.250 78.030 C 238.479 78.210,238.667 78.446,238.668 78.554 C 238.669 78.662,238.932 79.004,239.252 79.315 C 239.572 79.626,239.833 79.958,239.833 80.053 C 239.833 80.240,242.727 83.117,243.259 83.459 C 243.437 83.574,243.754 83.741,243.963 83.831 C 244.171 83.921,244.385 84.109,244.439 84.247 C 244.492 84.386,244.678 84.500,244.851 84.500 C 245.025 84.500,245.167 84.570,245.167 84.655 C 245.167 84.741,245.335 84.864,245.542 84.929 C 245.748 84.994,246.038 85.187,246.186 85.357 C 246.334 85.527,246.616 85.667,246.811 85.667 C 247.007 85.667,247.167 85.733,247.167 85.815 C 247.167 85.896,247.429 86.012,247.750 86.072 C 248.071 86.133,248.333 86.253,248.333 86.341 C 248.333 86.428,248.521 86.500,248.750 86.500 C 248.979 86.500,249.167 86.575,249.167 86.667 C 249.167 86.758,249.339 86.833,249.550 86.833 C 249.761 86.833,250.012 86.912,250.108 87.008 C 250.203 87.103,250.818 87.227,251.474 87.282 C 252.130 87.337,252.667 87.446,252.667 87.524 C 252.667 87.712,262.954 87.710,263.070 87.522 C 263.119 87.442,263.684 87.325,264.326 87.262 C 264.967 87.199,265.536 87.077,265.589 86.990 C 265.643 86.904,265.832 86.833,266.010 86.833 C 266.188 86.833,266.333 86.758,266.333 86.667 C 266.333 86.575,266.515 86.500,266.736 86.500 C 266.958 86.500,267.166 86.420,267.198 86.323 C 267.231 86.225,267.574 86.103,267.962 86.051 C 268.350 85.999,268.667 85.891,268.667 85.811 C 268.667 85.732,268.779 85.667,268.917 85.667 C 269.054 85.667,269.167 85.592,269.167 85.500 C 269.167 85.408,269.309 85.333,269.482 85.333 C 269.656 85.333,269.841 85.221,269.894 85.083 C 269.946 84.946,270.123 84.833,270.286 84.832 C 270.450 84.831,270.755 84.614,270.964 84.349 C 271.173 84.084,271.529 83.820,271.755 83.764 C 271.982 83.707,272.167 83.587,272.167 83.497 C 272.167 83.407,272.248 83.333,272.348 83.333 C 272.565 83.333,275.667 80.262,275.667 80.048 C 275.667 79.966,275.929 79.644,276.250 79.333 C 276.571 79.022,276.833 78.704,276.833 78.626 C 276.833 78.548,277.021 78.310,277.250 78.098 C 277.479 77.886,277.667 77.589,277.667 77.439 C 277.667 77.289,277.725 77.167,277.797 77.167 C 277.868 77.167,278.072 76.792,278.250 76.333 C 278.428 75.875,278.632 75.500,278.703 75.500 C 278.775 75.500,278.833 75.356,278.833 75.181 C 278.833 75.005,278.890 74.836,278.958 74.806 C 279.153 74.719,279.667 73.526,279.667 73.161 C 279.667 72.981,279.724 72.833,279.794 72.833 C 279.968 72.833,280.500 71.576,280.500 71.166 C 280.500 70.983,280.575 70.833,280.667 70.833 C 280.758 70.833,280.833 70.650,280.833 70.427 C 280.833 70.203,280.908 69.973,281.000 69.917 C 281.092 69.860,281.167 69.608,281.167 69.357 C 281.167 69.106,281.241 68.825,281.332 68.734 C 281.423 68.643,281.547 68.103,281.606 67.534 C 281.666 66.965,281.778 66.500,281.857 66.500 C 281.936 66.500,282.000 65.975,282.000 65.333 C 282.000 64.667,282.071 64.167,282.167 64.167 C 282.265 64.167,282.333 63.560,282.333 62.681 C 282.333 61.652,282.396 61.173,282.539 61.126 C 282.840 61.026,282.841 27.941,282.540 27.640 C 282.409 27.509,282.333 26.928,282.333 26.050 C 282.333 25.239,282.264 24.667,282.167 24.667 C 282.071 24.667,282.000 24.167,282.000 23.500 C 282.000 22.858,281.936 22.333,281.857 22.333 C 281.779 22.333,281.668 21.827,281.610 21.209 C 281.552 20.591,281.429 20.060,281.336 20.029 C 281.243 19.998,281.167 19.716,281.167 19.403 C 281.167 19.090,281.092 18.833,281.000 18.833 C 280.908 18.833,280.833 18.692,280.833 18.519 C 280.833 18.346,280.721 17.990,280.584 17.727 C 280.447 17.465,280.335 17.081,280.334 16.875 C 280.334 16.669,280.258 16.500,280.167 16.500 C 280.075 16.500,280.000 16.350,280.000 16.167 C 280.000 15.983,279.925 15.833,279.833 15.833 C 279.742 15.833,279.667 15.660,279.667 15.449 C 279.667 15.237,279.557 14.918,279.422 14.740 C 279.287 14.562,279.175 14.285,279.172 14.125 C 279.169 13.965,279.092 13.833,279.000 13.833 C 278.908 13.833,278.833 13.721,278.833 13.583 C 278.833 13.446,278.758 13.333,278.667 13.333 C 278.575 13.333,278.500 13.193,278.500 13.020 C 278.500 12.848,278.387 12.614,278.250 12.500 C 278.112 12.386,278.000 12.132,278.000 11.936 C 278.000 11.740,277.850 11.487,277.667 11.372 C 277.483 11.258,277.333 11.052,277.333 10.915 C 277.333 10.779,277.263 10.667,277.178 10.667 C 277.092 10.667,276.970 10.501,276.905 10.298 C 276.841 10.095,276.461 9.601,276.061 9.201 C 275.661 8.801,275.333 8.406,275.333 8.324 C 275.333 8.136,272.900 5.667,272.715 5.667 C 272.641 5.667,272.378 5.479,272.131 5.250 C 271.883 5.021,271.603 4.833,271.507 4.833 C 271.412 4.833,271.333 4.772,271.333 4.698 C 271.333 4.623,271.071 4.437,270.750 4.284 C 270.429 4.131,270.167 3.929,270.167 3.836 C 270.167 3.743,270.017 3.667,269.833 3.667 C 269.650 3.667,269.500 3.609,269.500 3.539 C 269.500 3.405,268.283 2.833,267.999 2.833 C 267.908 2.833,267.833 2.758,267.833 2.667 C 267.833 2.575,267.608 2.500,267.333 2.500 C 267.058 2.500,266.833 2.440,266.833 2.366 C 266.833 2.150,265.304 1.665,264.625 1.666 C 264.281 1.666,264.000 1.592,264.000 1.500 C 264.000 1.403,263.444 1.333,262.667 1.333 C 261.889 1.333,261.333 1.264,261.333 1.167 C 261.333 1.060,259.778 1.000,257.000 1.000 C 254.222 1.000,252.667 1.060,252.667 1.167 M60.427 5.827 C 60.514 5.914,62.123 6.017,64.002 6.055 C 67.482 6.126,70.206 6.394,70.306 6.676 C 70.336 6.763,70.538 6.833,70.754 6.833 C 70.970 6.833,71.193 6.908,71.250 7.000 C 71.307 7.092,71.536 7.167,71.759 7.167 C 72.226 7.167,73.500 7.683,73.500 7.873 C 73.500 7.943,73.688 8.000,73.917 8.000 C 74.146 8.000,74.333 8.075,74.333 8.167 C 74.333 8.258,74.474 8.333,74.646 8.333 C 74.818 8.333,75.053 8.446,75.167 8.583 C 75.281 8.721,75.477 8.833,75.604 8.833 C 75.730 8.833,75.833 8.908,75.833 9.000 C 75.833 9.092,75.928 9.167,76.043 9.167 C 76.159 9.167,76.456 9.354,76.703 9.583 C 76.950 9.813,77.198 10.000,77.255 10.000 C 77.311 10.000,77.454 10.094,77.573 10.208 C 77.692 10.323,77.986 10.585,78.228 10.791 C 78.469 10.996,78.667 11.264,78.667 11.386 C 78.667 11.507,78.854 11.770,79.083 11.969 C 79.313 12.168,79.500 12.443,79.500 12.581 C 79.500 12.718,79.650 12.924,79.833 13.039 C 80.017 13.153,80.167 13.379,80.167 13.540 C 80.167 13.701,80.223 13.834,80.292 13.834 C 80.360 13.834,80.555 14.191,80.724 14.626 C 80.892 15.061,81.169 15.717,81.338 16.083 C 81.508 16.450,81.695 17.012,81.754 17.333 C 81.892 18.087,82.198 19.040,82.367 19.242 C 82.440 19.329,82.500 19.745,82.500 20.167 C 82.500 20.588,82.588 21.021,82.695 21.128 C 82.979 21.413,82.986 35.533,82.701 35.627 C 82.591 35.664,82.500 35.876,82.500 36.097 L 82.500 36.500 67.667 36.500 L 52.833 36.500 52.833 35.083 C 52.833 34.250,52.765 33.667,52.667 33.667 C 52.560 33.667,52.500 32.194,52.500 29.583 C 52.500 26.972,52.440 25.500,52.333 25.500 C 52.226 25.500,52.167 23.694,52.167 20.417 C 52.167 17.139,52.226 15.333,52.333 15.333 C 52.439 15.333,52.500 14.000,52.500 11.667 C 52.500 9.333,52.561 8.000,52.667 8.000 C 52.762 8.000,52.833 7.500,52.833 6.833 L 52.833 5.667 56.550 5.667 C 58.700 5.667,60.334 5.734,60.427 5.827 M198.333 11.333 C 198.333 11.425,198.708 11.500,199.167 11.500 C 199.625 11.500,200.000 11.565,200.000 11.645 C 200.000 11.725,200.600 11.843,201.333 11.907 C 202.067 11.971,202.667 12.093,202.667 12.178 C 202.667 12.263,202.779 12.333,202.917 12.333 C 203.054 12.333,203.167 12.408,203.167 12.500 C 203.167 12.592,203.373 12.669,203.625 12.672 C 203.877 12.675,204.229 12.787,204.407 12.922 C 204.585 13.057,204.861 13.167,205.021 13.167 C 205.180 13.167,205.358 13.317,205.417 13.500 C 205.475 13.683,205.650 13.833,205.807 13.833 C 205.963 13.833,206.764 14.521,207.587 15.362 C 209.141 16.950,209.464 17.354,209.956 18.333 C 210.118 18.654,210.306 18.942,210.375 18.972 C 210.444 19.003,210.500 19.168,210.500 19.338 C 210.500 19.509,210.688 20.002,210.917 20.433 C 211.146 20.864,211.333 21.351,211.333 21.515 C 211.333 21.679,211.408 21.860,211.500 21.917 C 211.592 21.973,211.667 22.203,211.667 22.427 C 211.667 22.650,211.736 22.833,211.821 22.833 C 211.906 22.833,212.028 23.247,212.091 23.752 C 212.154 24.258,212.272 24.712,212.353 24.762 C 212.434 24.812,212.500 25.261,212.500 25.760 C 212.500 26.259,212.575 26.667,212.667 26.667 C 212.759 26.667,212.833 27.106,212.833 27.653 C 212.833 28.294,212.906 28.663,213.042 28.708 C 213.206 28.763,213.250 32.030,213.250 44.297 C 213.250 56.491,213.205 59.861,213.042 60.025 C 212.923 60.144,212.833 60.649,212.833 61.200 C 212.833 61.732,212.765 62.167,212.682 62.167 C 212.599 62.167,212.493 62.560,212.446 63.042 C 212.326 64.279,211.970 65.833,211.805 65.833 C 211.729 65.833,211.667 66.058,211.667 66.333 C 211.667 66.608,211.592 66.833,211.500 66.833 C 211.408 66.833,211.331 67.002,211.328 67.208 C 211.325 67.415,211.213 67.729,211.078 67.907 C 210.943 68.085,210.833 68.441,210.833 68.699 C 210.833 68.956,210.758 69.167,210.667 69.167 C 210.575 69.167,210.500 69.279,210.500 69.417 C 210.500 69.554,210.425 69.667,210.333 69.667 C 210.242 69.667,210.164 69.798,210.161 69.958 C 210.158 70.119,210.046 70.396,209.911 70.574 C 209.777 70.751,209.667 70.989,209.667 71.102 C 209.667 71.215,209.460 71.532,209.208 71.806 C 208.956 72.080,208.415 72.686,208.007 73.152 C 207.598 73.619,207.180 74.000,207.078 74.000 C 206.977 74.000,206.730 74.188,206.531 74.417 C 206.332 74.646,206.057 74.833,205.919 74.833 C 205.782 74.833,205.576 74.983,205.461 75.167 C 205.347 75.350,205.121 75.500,204.960 75.500 C 204.799 75.500,204.667 75.569,204.667 75.653 C 204.667 75.738,204.423 75.857,204.125 75.917 C 203.415 76.062,202.667 76.382,202.667 76.541 C 202.667 76.610,202.479 76.667,202.250 76.667 C 202.021 76.667,201.833 76.734,201.833 76.816 C 201.833 76.898,201.140 77.018,200.292 77.084 C 199.444 77.150,198.661 77.276,198.551 77.364 C 198.200 77.648,192.500 77.126,192.500 76.810 C 192.500 76.731,192.275 76.667,192.000 76.667 C 191.725 76.667,191.500 76.601,191.500 76.520 C 191.500 76.439,191.051 76.233,190.501 76.061 C 189.952 75.890,189.502 75.694,189.501 75.625 C 189.501 75.556,189.429 75.500,189.342 75.500 C 189.101 75.500,187.812 74.572,187.264 74.004 C 186.997 73.727,186.710 73.500,186.627 73.500 C 186.457 73.500,186.000 73.078,186.000 72.922 C 186.000 72.808,185.773 72.521,185.208 71.916 C 185.002 71.696,184.833 71.437,184.833 71.341 C 184.833 71.245,184.760 71.167,184.670 71.167 C 184.580 71.167,184.459 70.979,184.402 70.750 C 184.344 70.521,184.230 70.333,184.149 70.333 C 184.067 70.333,184.000 70.183,184.000 70.000 C 184.000 69.817,183.926 69.667,183.835 69.667 C 183.745 69.667,183.622 69.365,183.563 68.996 C 183.504 68.628,183.391 68.286,183.311 68.236 C 183.232 68.187,183.167 67.964,183.167 67.740 C 183.167 67.516,183.092 67.333,183.000 67.333 C 182.908 67.333,182.833 67.146,182.833 66.917 C 182.833 66.688,182.765 66.500,182.682 66.500 C 182.599 66.500,182.480 66.125,182.417 65.667 C 182.354 65.208,182.234 64.833,182.151 64.833 C 182.068 64.833,182.000 64.575,182.000 64.260 C 182.000 63.944,181.925 63.640,181.833 63.583 C 181.742 63.527,181.667 63.012,181.667 62.440 C 181.667 61.868,181.588 61.321,181.492 61.226 C 181.378 61.111,181.287 58.240,181.229 52.901 C 181.178 48.203,181.073 44.608,180.980 44.414 C 180.815 44.070,180.846 41.800,181.140 32.589 C 181.247 29.233,181.360 27.575,181.483 27.533 C 181.587 27.499,181.667 27.078,181.667 26.569 C 181.667 26.073,181.742 25.667,181.833 25.667 C 181.925 25.667,182.000 25.409,182.000 25.093 C 182.000 24.778,182.069 24.477,182.154 24.425 C 182.238 24.373,182.359 23.843,182.423 23.248 C 182.487 22.653,182.605 22.167,182.686 22.167 C 182.767 22.167,182.833 22.054,182.833 21.917 C 182.833 21.779,182.908 21.667,183.000 21.667 C 183.092 21.667,183.167 21.484,183.167 21.260 C 183.167 21.036,183.232 20.813,183.311 20.764 C 183.391 20.714,183.506 20.297,183.567 19.837 C 183.628 19.377,183.742 19.000,183.820 19.000 C 183.897 19.000,184.009 18.869,184.068 18.708 C 184.287 18.112,184.702 17.476,184.931 17.388 C 185.061 17.338,185.167 17.192,185.167 17.063 C 185.167 16.731,188.060 13.833,188.392 13.833 C 188.543 13.833,188.667 13.758,188.667 13.667 C 188.667 13.575,188.779 13.500,188.917 13.500 C 189.054 13.500,189.167 13.425,189.167 13.333 C 189.167 13.242,189.302 13.167,189.468 13.167 C 189.634 13.167,189.915 13.057,190.093 12.922 C 190.271 12.787,190.548 12.675,190.708 12.672 C 190.869 12.669,191.000 12.592,191.000 12.500 C 191.000 12.408,191.181 12.333,191.403 12.333 C 191.624 12.333,191.831 12.257,191.862 12.164 C 191.893 12.071,192.424 11.948,193.042 11.890 C 193.661 11.832,194.167 11.721,194.167 11.643 C 194.167 11.564,194.542 11.500,195.000 11.500 C 195.458 11.500,195.833 11.425,195.833 11.333 C 195.833 11.237,196.361 11.167,197.083 11.167 C 197.806 11.167,198.333 11.237,198.333 11.333 M258.833 11.333 C 258.833 11.426,259.278 11.500,259.833 11.500 C 260.383 11.500,260.833 11.567,260.833 11.650 C 260.833 11.732,261.358 11.852,262.000 11.917 C 262.642 11.981,263.167 12.101,263.167 12.184 C 263.167 12.266,263.354 12.333,263.583 12.333 C 263.813 12.333,264.000 12.408,264.000 12.500 C 264.000 12.592,264.131 12.669,264.292 12.672 C 264.452 12.675,264.729 12.787,264.907 12.922 C 265.085 13.057,265.361 13.167,265.521 13.167 C 265.680 13.167,265.858 13.317,265.917 13.500 C 265.975 13.683,266.158 13.833,266.324 13.833 C 266.490 13.833,266.719 13.946,266.833 14.083 C 266.947 14.221,267.110 14.333,267.195 14.333 C 267.383 14.333,269.223 16.159,269.383 16.504 C 269.590 16.947,269.911 17.407,270.208 17.684 C 270.369 17.833,270.500 18.069,270.500 18.207 C 270.500 18.346,270.612 18.553,270.750 18.667 C 270.887 18.781,271.000 18.977,271.000 19.104 C 271.000 19.230,271.069 19.333,271.153 19.333 C 271.238 19.333,271.356 19.557,271.416 19.831 C 271.476 20.105,271.595 20.372,271.679 20.425 C 271.764 20.477,271.833 20.703,271.833 20.927 C 271.833 21.150,271.908 21.333,272.000 21.333 C 272.092 21.333,272.167 21.483,272.167 21.667 C 272.167 21.850,272.233 22.000,272.314 22.000 C 272.395 22.000,272.513 22.487,272.577 23.082 C 272.641 23.676,272.762 24.206,272.846 24.258 C 272.931 24.310,273.000 24.569,273.000 24.833 C 273.000 25.098,273.075 25.360,273.167 25.417 C 273.259 25.473,273.333 26.219,273.333 27.079 C 273.333 28.179,273.395 28.659,273.542 28.708 C 273.706 28.763,273.750 32.030,273.750 44.297 C 273.750 56.491,273.705 59.861,273.542 60.025 C 273.405 60.162,273.333 60.766,273.333 61.783 C 273.333 62.706,273.266 63.333,273.167 63.333 C 273.075 63.333,273.000 63.596,273.000 63.917 C 273.000 64.237,272.933 64.500,272.850 64.500 C 272.768 64.500,272.648 65.025,272.583 65.667 C 272.519 66.308,272.399 66.833,272.316 66.833 C 272.234 66.833,272.167 66.946,272.167 67.083 C 272.167 67.221,272.092 67.333,272.000 67.333 C 271.908 67.333,271.833 67.484,271.833 67.669 C 271.833 67.854,271.762 68.135,271.675 68.294 C 271.588 68.453,271.384 68.883,271.223 69.250 C 271.061 69.617,270.833 70.016,270.715 70.137 C 270.597 70.258,270.500 70.464,270.500 70.595 C 270.500 70.726,270.425 70.833,270.333 70.833 C 270.242 70.833,270.167 70.975,270.167 71.149 C 270.167 71.322,270.051 71.509,269.909 71.563 C 269.767 71.618,269.572 71.888,269.476 72.164 C 269.380 72.441,269.241 72.667,269.168 72.667 C 269.095 72.667,268.596 73.116,268.059 73.666 C 267.522 74.215,266.990 74.665,266.875 74.666 C 266.760 74.666,266.667 74.740,266.667 74.830 C 266.667 74.920,266.479 75.041,266.250 75.098 C 266.021 75.156,265.833 75.270,265.833 75.351 C 265.833 75.433,265.683 75.500,265.500 75.500 C 265.317 75.500,265.167 75.565,265.167 75.644 C 265.167 75.723,264.810 75.915,264.375 76.071 C 263.940 76.226,263.453 76.424,263.294 76.510 C 263.135 76.596,262.860 76.667,262.683 76.667 C 262.506 76.667,262.336 76.740,262.306 76.830 C 262.275 76.919,261.591 77.043,260.786 77.105 C 259.981 77.166,259.283 77.280,259.235 77.358 C 259.120 77.543,256.546 77.543,256.432 77.359 C 256.384 77.281,255.649 77.168,254.798 77.108 C 253.946 77.047,253.225 76.923,253.194 76.832 C 253.164 76.741,252.958 76.667,252.736 76.667 C 252.515 76.667,252.333 76.592,252.333 76.500 C 252.333 76.408,252.186 76.333,252.006 76.333 C 251.640 76.333,250.448 75.820,250.361 75.625 C 250.331 75.556,250.162 75.500,249.986 75.500 C 249.810 75.500,249.667 75.433,249.667 75.351 C 249.667 75.270,249.479 75.156,249.250 75.098 C 249.021 75.041,248.833 74.920,248.833 74.830 C 248.833 74.740,248.759 74.667,248.667 74.667 C 248.576 74.667,248.222 74.404,247.882 74.083 C 247.542 73.762,247.167 73.500,247.049 73.500 C 246.930 73.500,246.833 73.380,246.833 73.232 C 246.833 73.085,246.646 72.817,246.417 72.637 C 246.188 72.457,246.000 72.203,246.000 72.073 C 246.000 71.943,245.850 71.742,245.667 71.628 C 245.483 71.513,245.333 71.297,245.333 71.147 C 245.333 70.997,245.221 70.781,245.083 70.667 C 244.946 70.553,244.833 70.356,244.833 70.230 C 244.833 70.103,244.758 70.000,244.667 70.000 C 244.575 70.000,244.500 69.850,244.500 69.667 C 244.500 69.483,244.431 69.333,244.347 69.333 C 244.262 69.333,244.144 69.109,244.084 68.835 C 244.024 68.561,243.905 68.294,243.821 68.242 C 243.736 68.190,243.667 67.964,243.667 67.740 C 243.667 67.516,243.592 67.333,243.500 67.333 C 243.408 67.333,243.333 67.221,243.333 67.083 C 243.333 66.946,243.268 66.833,243.188 66.833 C 243.108 66.833,242.992 66.383,242.930 65.833 C 242.868 65.283,242.746 64.833,242.658 64.833 C 242.571 64.833,242.500 64.233,242.500 63.500 C 242.500 62.722,242.431 62.167,242.333 62.167 C 242.232 62.167,242.167 61.400,242.167 60.200 C 242.167 58.916,242.099 58.165,241.971 58.037 C 241.677 57.743,241.664 29.306,241.958 29.208 C 242.098 29.162,242.167 28.760,242.167 27.986 C 242.167 27.329,242.238 26.833,242.333 26.833 C 242.428 26.833,242.500 26.337,242.500 25.677 C 242.500 25.040,242.569 24.477,242.654 24.425 C 242.738 24.373,242.859 23.843,242.923 23.248 C 242.987 22.653,243.105 22.167,243.186 22.167 C 243.267 22.167,243.333 21.979,243.333 21.750 C 243.333 21.521,243.390 21.333,243.459 21.333 C 243.623 21.333,243.963 20.560,244.100 19.874 C 244.160 19.577,244.274 19.333,244.354 19.333 C 244.434 19.333,244.500 19.258,244.500 19.165 C 244.500 19.072,244.762 18.623,245.083 18.167 C 245.404 17.710,245.667 17.263,245.667 17.172 C 245.667 17.082,245.854 16.885,246.083 16.735 C 246.313 16.585,246.500 16.361,246.500 16.239 C 246.500 15.767,248.696 13.833,249.233 13.833 C 249.367 13.833,249.525 13.683,249.583 13.500 C 249.642 13.317,249.820 13.167,249.979 13.167 C 250.139 13.167,250.415 13.057,250.593 12.922 C 250.771 12.787,251.048 12.675,251.208 12.672 C 251.369 12.669,251.500 12.592,251.500 12.500 C 251.500 12.408,251.688 12.333,251.917 12.333 C 252.146 12.333,252.333 12.266,252.333 12.184 C 252.333 12.101,252.858 11.981,253.500 11.917 C 254.142 11.852,254.667 11.732,254.667 11.650 C 254.667 11.567,255.117 11.500,255.667 11.500 C 256.222 11.500,256.667 11.426,256.667 11.333 C 256.667 11.239,257.139 11.167,257.750 11.167 C 258.361 11.167,258.833 11.239,258.833 11.333 M319.000 11.333 C 319.000 11.433,319.636 11.500,320.573 11.500 C 321.439 11.500,322.188 11.566,322.238 11.647 C 322.288 11.728,322.892 11.847,323.581 11.911 C 324.270 11.976,324.833 12.097,324.833 12.181 C 324.833 12.265,325.021 12.333,325.250 12.333 C 325.479 12.333,325.667 12.408,325.667 12.500 C 325.667 12.592,325.817 12.667,326.000 12.667 C 326.183 12.667,326.333 12.738,326.333 12.826 C 326.333 12.913,326.593 13.034,326.911 13.093 C 327.269 13.160,327.527 13.322,327.589 13.517 C 327.644 13.691,327.800 13.833,327.936 13.833 C 328.071 13.833,328.525 14.171,328.943 14.583 C 329.362 14.996,329.763 15.333,329.834 15.333 C 330.036 15.333,331.000 16.278,331.000 16.476 C 331.000 16.573,331.188 16.839,331.417 17.068 C 331.646 17.297,331.833 17.563,331.833 17.659 C 331.833 17.755,331.894 17.833,331.968 17.833 C 332.136 17.833,332.667 19.015,332.667 19.389 C 332.667 19.542,332.742 19.667,332.833 19.667 C 332.925 19.667,333.000 19.779,333.000 19.917 C 333.000 20.054,333.070 20.167,333.156 20.167 C 333.243 20.167,333.364 20.504,333.425 20.917 C 333.487 21.329,333.604 21.667,333.686 21.667 C 333.767 21.667,333.833 21.854,333.833 22.083 C 333.833 22.313,333.908 22.500,334.000 22.500 C 334.092 22.500,334.167 22.688,334.167 22.917 C 334.167 23.146,334.237 23.333,334.322 23.333 C 334.407 23.333,334.529 23.933,334.593 24.667 C 334.657 25.400,334.775 26.000,334.855 26.000 C 334.935 26.000,335.000 26.444,335.000 26.986 C 335.000 27.627,335.073 27.997,335.208 28.042 C 335.514 28.144,335.514 60.523,335.208 60.625 C 335.073 60.670,335.000 61.038,335.000 61.671 C 335.000 62.208,334.934 62.688,334.853 62.738 C 334.772 62.788,334.653 63.392,334.589 64.081 C 334.524 64.770,334.403 65.333,334.319 65.333 C 334.235 65.333,334.167 65.521,334.167 65.750 C 334.167 65.979,334.092 66.167,334.000 66.167 C 333.908 66.167,333.833 66.350,333.833 66.573 C 333.833 66.797,333.768 67.021,333.689 67.070 C 333.609 67.119,333.496 67.461,333.437 67.830 C 333.378 68.198,333.255 68.500,333.165 68.500 C 333.074 68.500,333.000 68.650,333.000 68.833 C 333.000 69.017,332.925 69.167,332.833 69.167 C 332.742 69.167,332.667 69.305,332.667 69.474 C 332.667 69.874,332.187 70.833,331.988 70.833 C 331.903 70.833,331.833 70.942,331.833 71.075 C 331.833 71.208,331.571 71.572,331.250 71.884 C 330.929 72.195,330.665 72.518,330.663 72.600 C 330.661 72.683,330.397 72.975,330.076 73.250 C 329.755 73.525,329.151 74.069,328.733 74.458 C 328.315 74.848,327.867 75.167,327.737 75.167 C 327.607 75.167,327.500 75.242,327.500 75.333 C 327.500 75.425,327.350 75.500,327.167 75.500 C 326.983 75.500,326.833 75.556,326.833 75.625 C 326.832 75.694,326.476 75.887,326.041 76.054 C 325.606 76.220,325.120 76.427,324.961 76.512 C 324.801 76.597,324.451 76.667,324.183 76.667 C 323.914 76.667,323.669 76.741,323.639 76.831 C 323.608 76.922,322.486 77.045,321.119 77.107 C 319.763 77.169,318.615 77.282,318.567 77.360 C 318.430 77.581,305.104 77.538,304.881 77.314 C 304.779 77.212,304.389 77.158,304.014 77.194 L 303.333 77.259 303.333 44.379 L 303.333 11.500 304.333 11.500 C 304.889 11.500,305.333 11.426,305.333 11.333 C 305.333 11.225,307.722 11.167,312.167 11.167 C 316.611 11.167,319.000 11.225,319.000 11.333 M2.242 47.989 C 2.155 48.074,1.783 48.168,1.417 48.197 L 0.750 48.250 0.707 57.324 C 0.679 63.260,0.722 66.455,0.832 66.565 C 0.924 66.658,1.000 67.426,1.000 68.273 C 1.000 69.121,1.075 69.860,1.167 69.917 C 1.258 69.973,1.333 70.390,1.333 70.843 C 1.333 71.296,1.398 71.667,1.477 71.667 C 1.556 71.667,1.666 72.055,1.722 72.529 C 1.779 73.003,1.901 73.468,1.996 73.562 C 2.090 73.656,2.167 73.901,2.167 74.107 C 2.167 74.312,2.242 74.527,2.333 74.583 C 2.425 74.640,2.500 74.869,2.500 75.093 C 2.500 75.317,2.567 75.500,2.649 75.500 C 2.730 75.500,2.846 75.706,2.906 75.958 C 3.109 76.811,4.387 79.229,4.875 79.684 C 5.035 79.833,5.167 80.068,5.167 80.205 C 5.167 80.341,5.354 80.594,5.583 80.766 C 5.813 80.938,6.000 81.136,6.000 81.205 C 6.000 81.484,7.478 83.000,7.751 83.000 C 7.804 83.000,8.036 83.188,8.265 83.417 C 8.494 83.646,8.763 83.833,8.863 83.833 C 8.963 83.833,9.166 83.971,9.314 84.139 C 9.462 84.307,9.902 84.584,10.292 84.754 C 10.681 84.925,11.000 85.125,11.000 85.199 C 11.000 85.273,11.112 85.333,11.250 85.333 C 11.387 85.333,11.500 85.408,11.500 85.500 C 11.500 85.592,11.641 85.667,11.814 85.667 C 11.987 85.667,12.343 85.779,12.606 85.916 C 12.869 86.053,13.252 86.165,13.458 86.166 C 13.665 86.166,13.833 86.242,13.833 86.333 C 13.833 86.425,13.983 86.500,14.167 86.500 C 14.350 86.500,14.500 86.575,14.500 86.667 C 14.500 86.758,14.721 86.833,14.990 86.833 C 15.260 86.833,15.525 86.905,15.579 86.992 C 15.633 87.080,16.125 87.202,16.672 87.264 C 17.219 87.326,17.667 87.442,17.667 87.522 C 17.667 87.601,18.042 87.667,18.500 87.667 C 18.958 87.667,19.333 87.742,19.333 87.833 C 19.333 87.943,23.028 88.000,30.083 88.000 L 40.833 88.000 40.833 68.083 L 40.833 48.167 39.833 48.167 C 39.278 48.167,38.833 48.093,38.833 48.000 C 38.833 47.780,2.466 47.769,2.242 47.989 M47.833 48.309 L 47.417 48.750 47.474 62.917 C 47.508 71.152,47.595 77.107,47.683 77.139 C 47.768 77.170,47.833 79.528,47.833 82.597 L 47.833 88.000 58.167 88.000 C 64.944 88.000,68.500 87.943,68.500 87.833 C 68.500 87.738,69.000 87.667,69.667 87.667 C 70.308 87.667,70.833 87.602,70.833 87.523 C 70.833 87.444,71.292 87.338,71.853 87.287 C 72.413 87.236,72.953 87.113,73.053 87.014 C 73.152 86.915,73.481 86.833,73.783 86.833 C 74.086 86.833,74.333 86.758,74.333 86.667 C 74.333 86.575,74.446 86.500,74.583 86.500 C 74.721 86.500,74.833 86.425,74.833 86.333 C 74.833 86.242,75.002 86.166,75.208 86.166 C 75.415 86.165,75.798 86.053,76.061 85.916 C 76.323 85.779,76.642 85.667,76.769 85.667 C 76.896 85.667,77.000 85.592,77.000 85.500 C 77.000 85.408,77.112 85.333,77.250 85.333 C 77.387 85.333,77.500 85.264,77.500 85.180 C 77.500 85.096,77.744 84.973,78.042 84.908 C 78.339 84.842,78.704 84.649,78.853 84.478 C 79.001 84.307,79.207 84.167,79.311 84.167 C 79.415 84.167,79.500 84.097,79.500 84.011 C 79.500 83.926,79.669 83.803,79.875 83.739 C 80.081 83.675,81.000 82.860,81.917 81.929 C 83.585 80.234,83.865 79.895,84.157 79.225 C 84.243 79.027,84.388 78.819,84.481 78.762 C 84.885 78.512,86.500 74.768,86.500 74.080 C 86.500 73.853,86.575 73.667,86.667 73.667 C 86.758 73.667,86.833 73.484,86.833 73.260 C 86.833 73.036,86.908 72.807,87.000 72.750 C 87.092 72.693,87.167 72.441,87.167 72.190 C 87.167 71.939,87.260 71.640,87.374 71.526 C 87.530 71.370,87.596 69.589,87.642 64.243 C 87.677 60.278,87.769 57.167,87.852 57.167 C 87.935 57.167,88.000 55.177,88.000 52.667 L 88.000 48.167 78.667 48.167 C 72.556 48.167,69.333 48.109,69.333 48.000 C 69.333 47.890,65.720 47.839,58.792 47.851 L 48.250 47.869 47.833 48.309 " stroke="none" fill="#464646" fill-rule="evenodd"></path></g></svg>