<?xml version="1.0" standalone="no"?>
<!DOCTYPE svg PUBLIC "-//W3C//DTD SVG 20010904//EN"
 "http://www.w3.org/TR/2001/REC-SVG-20010904/DTD/svg10.dtd">
<svg version="1.0" xmlns="http://www.w3.org/2000/svg"
 width="1100.000000pt" height="245.000000pt" viewBox="0 0 1100.000000 245.000000"
 preserveAspectRatio="xMidYMid meet">

<g transform="translate(0.000000,245.000000) scale(0.100000,-0.100000)"
fill="#000000" stroke="none">
<path d="M609 2420 c-305 -29 -488 -167 -554 -415 -26 -98 -34 -247 -27 -470
l7 -210 540 0 540 0 3 548 2 547 -87 0 c-49 0 -144 2 -213 4 -69 3 -164 1
-211 -4z"/>
<path d="M1449 2423 l-127 -4 -7 -257 c-8 -269 1 -822 14 -835 4 -4 248 -6
542 -5 l534 3 0 305 c0 292 -1 308 -23 380 -66 210 -191 332 -397 384 -74 19
-257 37 -345 34 -36 -1 -122 -4 -191 -5z m506 -153 c175 -56 247 -127 302
-295 22 -67 27 -104 31 -232 2 -84 1 -186 -3 -228 l-7 -75 -417 0 -418 0 -6
158 c-9 201 -9 392 0 566 l6 138 221 -4 c195 -4 229 -8 291 -28z"/>
<path d="M2610 1230 l0 -1190 120 0 120 0 0 268 0 267 198 287 c108 157 201
288 205 290 5 1 138 -247 296 -552 l287 -555 142 -3 c78 -1 142 0 142 3 0 3
-158 308 -350 679 l-351 675 351 506 c192 278 350 507 350 510 0 3 -69 5 -152
5 l-153 0 -474 -686 c-261 -376 -478 -687 -483 -690 -4 -3 -8 306 -8 685 l0
691 -120 0 -120 0 0 -1190z"/>
<path d="M4885 2414 c-327 -53 -533 -284 -590 -664 -11 -71 -15 -201 -15 -520
0 -319 4 -449 15 -520 49 -329 213 -552 468 -637 76 -25 94 -27 247 -27 153 0
171 2 247 27 255 85 419 308 468 637 21 135 21 905 0 1040 -51 342 -229 570
-501 645 -59 16 -279 28 -339 19z m207 -274 c101 -15 171 -45 233 -101 97 -90
147 -209 165 -397 13 -139 13 -686 0 -825 -29 -305 -156 -464 -398 -499 -160
-23 -323 22 -417 117 -56 55 -106 158 -130 265 -22 97 -33 741 -16 927 29 317
152 477 395 513 73 11 93 11 168 0z"/>
<path d="M6675 2414 c-327 -53 -533 -284 -590 -664 -11 -71 -15 -201 -15 -520
0 -319 4 -449 15 -520 49 -329 213 -552 468 -637 76 -25 94 -27 247 -27 153 0
171 2 247 27 255 85 419 308 468 637 21 135 21 905 0 1040 -51 342 -229 570
-501 645 -59 16 -279 28 -339 19z m207 -274 c101 -15 171 -45 233 -101 97 -90
147 -209 165 -397 13 -139 13 -686 0 -825 -29 -305 -156 -464 -398 -499 -160
-23 -323 22 -417 117 -56 55 -106 158 -130 265 -22 97 -33 741 -16 927 29 317
152 477 395 513 73 11 93 11 168 0z"/>
<path d="M7890 1231 l0 -1191 410 0 c467 0 509 5 650 71 69 33 99 55 166 123
124 126 192 279 223 501 17 121 14 898 -4 1015 -43 290 -173 494 -381 598
-127 64 -136 65 -621 69 l-443 4 0 -1190z m812 909 c98 -14 170 -45 229 -98
101 -90 151 -209 169 -399 13 -139 13 -686 0 -825 -18 -188 -68 -307 -165
-397 -104 -94 -201 -113 -560 -109 l-240 3 -3 905 c-1 498 0 911 3 918 6 15
463 17 567 2z"/>
<path d="M9710 1230 l0 -1190 635 0 635 0 0 135 0 135 -512 2 -513 3 -3 387
-2 388 515 0 515 0 0 135 0 135 -512 2 -513 3 0 390 0 390 513 3 512 2 0 135
0 135 -635 0 -635 0 0 -1190z"/>
<path d="M78 1123 l-48 -4 -2 -157 c-7 -379 7 -492 73 -630 70 -145 175 -225
361 -275 76 -20 106 -22 368 -22 l285 0 3 541 2 541 -67 6 c-70 7 -891 6 -975
0z"/>
<path d="M1326 1118 c-18 -14 -18 -32 -10 -549 l9 -534 280 0 c322 0 380 9
515 76 134 68 212 166 261 329 20 68 22 102 26 378 l5 302 -229 0 c-125 0
-365 3 -533 6 -257 5 -308 4 -324 -8z"/>
</g>
</svg>
