<?xml version="1.0" standalone="no"?><!-- Generator: Gravit.io --><svg xmlns="http://www.w3.org/2000/svg" xmlns:xlink="http://www.w3.org/1999/xlink" style="isolation:isolate" viewBox="0 0 408 322.667" width="408" height="322.667"><defs><clipPath id="_clipPath_VDRUCkMom5FnmhtbZoI4lnX36Ej61DVM"><rect width="408" height="322.667"/></clipPath></defs><g clip-path="url(#_clipPath_VDRUCkMom5FnmhtbZoI4lnX36Ej61DVM)"><path d=" M 4.267 5.6 C 3.067 6.8 2.667 37.733 2.667 136.8 C 2.667 255.6 2.8 266.533 4.933 268.133 C 6.667 269.733 24.267 270.133 101.867 270.667 L 196.667 271.333 L 196.667 289.333 L 196.667 307.333 L 155.467 307.733 C 127.733 307.867 113.6 308.533 112.4 309.467 C 110.267 311.333 110.133 316.267 112.267 318.4 C 113.467 319.6 135.6 320 203.467 320 C 283.2 320 293.333 319.733 295.2 317.867 C 296.4 316.8 297.333 314.933 297.333 314 C 297.333 313.067 296.4 311.2 295.2 310.133 C 293.467 308.267 287.6 308 252 308 C 215.867 308 210.8 307.733 210.133 305.867 C 209.067 303.2 209.067 275.467 210.133 272.8 C 210.933 270.933 220.4 270.667 304.933 270.667 C 367.067 270.667 399.733 270.267 401.467 269.333 C 404 268 404 265.067 404 137.6 C 404 38 403.6 6.8 402.4 5.6 C 400.133 3.333 6.533 3.333 4.267 5.6 Z  M 392 136.667 L 392 257.333 L 203.6 257.067 L 15.333 256.667 L 14.933 136.267 L 14.667 16 L 203.333 16 L 392 16 L 392 136.667 Z " fill="rgb(255,255,255)"/><path d=" M 182 62.667 C 181.2 65.333 179.733 65.867 170 67.2 C 160.533 68.533 146.267 76.533 138.267 85.2 C 123.467 101.333 118.267 120.533 123.467 140.4 C 126.4 151.867 131.067 160.4 138.667 168.267 C 145.2 174.933 145.333 175.067 148 172.667 C 151.733 169.333 151.333 167.867 145.867 162.533 C 128 145.467 125.733 116.267 140.8 95.867 C 148.533 85.333 161.867 77.333 174.4 75.6 C 179.067 75.067 180.4 75.333 181.867 77.6 C 183.733 80.267 183.867 80.267 189.867 76.133 C 193.2 73.733 196 71.2 196 70.267 C 196 69.333 192.933 66.8 189.333 64.4 C 183.2 60.267 182.8 60.267 182 62.667 Z " fill="rgb(255,255,255)"/><path d=" M 214.533 81.467 C 213.333 83.867 213.733 84.933 217.733 89.2 C 233.6 105.867 237.733 129.067 228.267 148.4 C 220.8 163.467 205.067 175.067 189.6 176.933 C 183.6 177.6 182.933 177.333 182.267 174.667 C 181.6 171.867 181.467 171.867 177.733 174 C 175.6 175.2 172.4 177.333 170.533 178.8 C 166.533 181.867 167.733 184.267 175.733 188.933 C 181.333 192.267 181.467 192.267 182.133 189.733 C 182.667 187.6 184.4 186.8 189.067 186.267 C 197.6 185.333 207.2 181.867 214.533 177.333 C 219.867 174 221.067 173.733 223.333 175.2 C 224.933 176.267 226.267 179.067 226.8 182.133 C 227.867 189.6 228.933 191.2 244.4 206.4 C 256.933 218.667 258.8 220 263.2 220 C 266.933 220 269.2 219.067 272.133 216.133 C 279.333 208.8 277.333 204.4 258.267 185.6 C 246 173.6 243.867 172 239.733 172 C 236.533 172 234.133 170.933 232 168.667 C 229.067 165.6 228.933 164.933 230.667 162.267 C 240 147.6 243.333 135.733 242.133 122 C 240.933 106.667 235.067 94 224.667 83.6 C 218.8 78 216.667 77.467 214.533 81.467 Z " fill="rgb(255,255,255)"/><path d=" M 176 91.333 C 175.2 93.2 174.667 95.333 174.667 95.867 C 174.667 96.533 172.933 97.733 170.8 98.667 C 167.867 99.867 166.267 99.867 164 98.667 C 157.2 95.067 149.467 102 153.733 108 C 156.8 112.4 154.4 118 148.933 119.6 C 145.2 120.533 144.667 121.467 144.267 125.733 C 143.867 130.4 144.133 130.933 148.667 132.8 C 154.933 135.333 156.8 140.133 153.733 145.467 C 151.6 149.2 151.6 149.333 154.667 152.667 C 158.267 156.533 160.267 156.8 164.4 154.133 C 168.533 151.467 173.067 153.6 175.467 159.333 C 177.067 163.467 178 164 182.133 164 C 186.267 164 187.067 163.467 188.8 159.333 C 191.2 153.333 195.333 151.6 200.133 154.4 C 204.4 156.8 207.067 156 210 151.467 C 212 148.4 212 148 210 144.8 C 206.8 140 209.2 134.133 215.067 132.4 C 218.933 131.333 219.333 130.8 219.333 126 C 219.333 121.2 218.933 120.667 215.067 119.6 C 209.2 117.867 206.933 112.267 210 107.467 C 212.133 104.267 212.133 103.733 210.133 100.667 C 207.733 97.067 204.667 96.533 199.333 98.933 C 194.8 100.933 190.267 98.533 188.533 92.933 C 187.467 89.2 186.667 88.667 182.267 88.267 C 178 87.867 177.2 88.267 176 91.333 Z  M 188.933 111.6 C 198.267 116 201.2 126.4 195.6 134.8 C 186.4 148.4 166.267 142.267 166.267 125.867 C 166.267 119.6 168.533 116 175.333 111.867 C 180.267 108.8 182.933 108.667 188.933 111.6 Z " fill="rgb(255,255,255)"/><path d=" M 179.333 117.333 C 174.933 118.933 173.2 122.133 173.6 127.6 C 173.867 131.6 174.8 133.067 177.733 134.4 C 182.533 136.667 187.467 135.067 190.267 130.4 C 194.533 123.6 186.8 114.533 179.333 117.333 Z " fill="rgb(255,255,255)"/></g></svg>