<?xml version="1.0" ?><svg enable-background="new 0 0 144 144" id="Layer_1" version="1.1" viewBox="0 0 144 144" xml:space="preserve" xmlns="http://www.w3.org/2000/svg" xmlns:xlink="http://www.w3.org/1999/xlink"><g><path d="M30.169,64.158   V39.488c0-2.126,1.739-3.865,3.865-3.865h75.472c2.126,0,3.865,1.739,3.865,3.865v11.125" fill="none" stroke="#3D6CB4" stroke-linecap="round" stroke-linejoin="round" stroke-miterlimit="10"/><path d="M113.371,87.08   v18.913c0,2.126-1.739,3.865-3.865,3.865H34.034c-2.126,0-3.865-1.739-3.865-3.865V92.289" fill="none" stroke="#3D6CB4" stroke-linecap="round" stroke-linejoin="round" stroke-miterlimit="10"/><path d="M30.169,43.436V39.6c0-2.187,1.789-3.977,3.977-3.977h75.25c2.187,0,3.977,1.789,3.977,3.977   v3.836H30.169z" fill="#528AC8" opacity="0.3"/><path d="M30.169,43.436V39.6   c0-2.187,1.789-3.977,3.977-3.977h75.25c2.187,0,3.977,1.789,3.977,3.977v3.836H30.169z" fill="none" stroke="#3D6CB4" stroke-linecap="round" stroke-linejoin="round" stroke-miterlimit="10"/><circle cx="35.238" cy="39.53" fill="#3D6CB4" r="0.88"/><circle cx="38.754" cy="39.53" fill="#3D6CB4" r="0.88"/><path d="M106.926,59.673H36.614c-1.329,0-2.417-1.088-2.417-2.417v-5.238   c0-1.329,1.088-2.417,2.417-2.417h70.311c1.329,0,2.417,1.088,2.417,2.417v5.238C109.342,58.585,108.255,59.673,106.926,59.673z" fill="#528AC8" opacity="0.3"/><path d="M106.926,76.994H36.614c-1.329,0-2.417-1.088-2.417-2.417v-5.238   c0-1.329,1.088-2.417,2.417-2.417h70.311c1.329,0,2.417,1.087,2.417,2.417v5.238C109.342,75.907,108.255,76.994,106.926,76.994z" fill="#528AC8" opacity="0.3"/><path d="M106.926,94.316H36.614c-1.329,0-2.417-1.088-2.417-2.417v-5.238   c0-1.329,1.088-2.417,2.417-2.417h70.311c1.329,0,2.417,1.088,2.417,2.417V91.9C109.342,93.229,108.255,94.316,106.926,94.316z" fill="#528AC8" opacity="0.3"/><circle cx="42.27" cy="39.53" fill="#3D6CB4" r="0.88"/><path d="M130.558,50.555   H97.374c-5.731,0-10.514,4.785-10.514,10.515v15.158c0,5.731,4,10.852,10,10.852l0,0v9.465l10.769-8.99h22.929   c5.731,0,10.302-5.597,10.302-11.327V61.07C140.86,55.34,136.289,50.555,130.558,50.555z" fill="#FFFFFF" stroke="#3D6CB4" stroke-linecap="round" stroke-linejoin="round" stroke-miterlimit="10"/><path d="M27.017,64.555   h25.952c4.482,0,7.891,3.079,7.891,7.561V83.97c0,4.291-3.451,7.859-7.648,8.155c0.001,0.02-0.352,0.02-0.352,0.02v7.714   l-7.912-7.304H27.017c-4.482,0-8.157-4.103-8.157-8.585V72.116C18.86,67.634,22.535,64.555,27.017,64.555z" fill="#FFFFFF" stroke="#3D6CB4" stroke-linecap="round" stroke-linejoin="round" stroke-miterlimit="10"/><path d="M27.017,64.555   h25.952c4.482,0,7.891,3.079,7.891,7.561V83.97c0,4.291-3.451,7.859-7.648,8.155c0.001,0.02-0.352,0.02-0.352,0.02v7.714   l-7.912-7.304H27.017c-4.482,0-8.157-4.103-8.157-8.585V72.116C18.86,67.634,22.535,64.555,27.017,64.555z" fill="none" stroke="#3D6CB4" stroke-linecap="round" stroke-linejoin="round" stroke-miterlimit="10"/><line fill="#FFFFFF" stroke="#3D6CB4" stroke-linecap="round" stroke-linejoin="round" stroke-miterlimit="10" x1="25.36" x2="52.36" y1="71.555" y2="71.555"/><line fill="#FFFFFF" stroke="#3D6CB4" stroke-linecap="round" stroke-linejoin="round" stroke-miterlimit="10" x1="25.36" x2="48.36" y1="77.555" y2="77.555"/><line fill="#FFFFFF" stroke="#3D6CB4" stroke-linecap="round" stroke-linejoin="round" stroke-miterlimit="10" x1="25.36" x2="41.36" y1="83.555" y2="83.555"/><line fill="#FFFFFF" stroke="#3D6CB4" stroke-linecap="round" stroke-linejoin="round" stroke-miterlimit="10" x1="96.36" x2="130.36" y1="59.555" y2="59.555"/><line fill="#FFFFFF" stroke="#3D6CB4" stroke-linecap="round" stroke-linejoin="round" stroke-miterlimit="10" x1="96.36" x2="121.36" y1="67.555" y2="67.555"/><line fill="#FFFFFF" stroke="#3D6CB4" stroke-linecap="round" stroke-linejoin="round" stroke-miterlimit="10" x1="96.36" x2="113.36" y1="74.555" y2="74.555"/><g><line fill="none" stroke="#3D6CB4" stroke-linecap="round" stroke-linejoin="round" stroke-miterlimit="10" x1="6.751" x2="6.751" y1="35.481" y2="45.248"/><line fill="none" stroke="#3D6CB4" stroke-linecap="round" stroke-linejoin="round" stroke-miterlimit="10" x1="1.868" x2="11.635" y1="40.364" y2="40.364"/></g><g><line fill="none" stroke="#3D6CB4" stroke-linecap="round" stroke-linejoin="round" stroke-miterlimit="10" x1="17.886" x2="17.886" y1="51.071" y2="56.918"/><line fill="none" stroke="#3D6CB4" stroke-linecap="round" stroke-linejoin="round" stroke-miterlimit="10" x1="14.963" x2="20.81" y1="53.995" y2="53.995"/></g><g><line fill="none" stroke="#3D6CB4" stroke-linecap="round" stroke-linejoin="round" stroke-miterlimit="10" x1="133.937" x2="133.937" y1="97.06" y2="106.827"/><line fill="none" stroke="#3D6CB4" stroke-linecap="round" stroke-linejoin="round" stroke-miterlimit="10" x1="129.054" x2="138.821" y1="101.943" y2="101.943"/></g></g><g/><g/><g/><g/><g/><g/></svg>