<?xml version="1.0" standalone="no"?>
<!DOCTYPE svg PUBLIC "-//W3C//DTD SVG 20010904//EN"
 "http://www.w3.org/TR/2001/REC-SVG-20010904/DTD/svg10.dtd">
<svg version="1.0" xmlns="http://www.w3.org/2000/svg"
 width="306.000000pt" height="242.000000pt" viewBox="0 0 306.000000 242.000000"
 preserveAspectRatio="xMidYMid meet">

<g transform="translate(0.000000,242.000000) scale(0.100000,-0.100000)"
fill="#000000" stroke="none">
<path d="M30 2364 c-7 -17 -9 -370 -8 -985 2 -770 6 -961 16 -971 10 -10 158
-14 728 -16 l715 -2 -3 -138 -3 -137 -310 -5 c-171 -3 -316 -9 -322 -13 -20
-13 -15 -55 6 -67 30 -15 1353 -14 1369 2 16 16 15 53 -1 67 -9 7 -115 12
-323 13 l-309 3 -3 138 -3 137 708 0 c625 0 711 2 731 16 l22 15 0 965 c0 646
-3 972 -10 985 -11 19 -38 19 -1501 19 l-1489 0 -10 -26z m2915 -969 l0 -900
-1412 -3 -1413 -2 0 905 0 905 1413 -2 1412 -3 0 -900z"/>
<path d="M1134 1976 c-40 -18 -74 -62 -74 -97 0 -46 -10 -59 -72 -90 -72 -36
-73 -53 -3 -91 28 -14 56 -31 63 -38 9 -8 12 -57 12 -181 0 -187 7 -217 58
-242 55 -28 71 8 22 50 l-30 25 0 180 c0 98 -4 187 -10 197 -5 10 -23 24 -40
31 -16 7 -30 16 -30 20 0 4 18 19 40 34 37 24 40 30 40 71 0 32 6 51 20 65 19
19 33 20 380 20 347 0 361 -1 380 -20 19 -19 20 -33 20 -222 0 -112 5 -210 10
-218 7 -12 13 -13 27 -4 16 10 18 31 18 215 0 223 -4 243 -58 283 -27 20 -41
21 -385 23 -283 2 -363 0 -388 -11z"/>
<path d="M1662 1712 c-11 -11 -26 -46 -32 -77 -15 -73 -107 -257 -158 -315
l-39 -44 -86 3 c-81 3 -88 1 -112 -23 l-26 -26 3 -181 c4 -232 -13 -216 228
-220 433 -7 461 -6 507 19 43 23 73 64 73 102 0 11 7 31 14 43 31 46 43 157
32 277 -10 102 -88 143 -231 120 -37 -6 -69 -9 -72 -7 -2 3 8 50 22 106 21 85
24 108 15 141 -9 35 -58 90 -80 90 -5 0 -15 3 -23 6 -9 3 -24 -3 -35 -14z m65
-64 c29 -27 29 -61 3 -159 -38 -142 -25 -179 57 -161 87 19 118 22 158 12 49
-11 68 -35 60 -76 -3 -18 1 -43 11 -63 14 -29 14 -34 0 -56 -9 -13 -16 -44
-16 -68 0 -27 -6 -49 -15 -57 -8 -7 -15 -28 -15 -47 0 -80 -87 -110 -290 -98
-69 4 -145 10 -170 14 l-45 6 -3 164 -3 163 51 62 c58 70 153 256 170 334 7
28 15 52 18 52 3 0 16 -10 29 -22z m-329 -430 c8 -8 12 -59 12 -165 0 -172 -1
-173 -79 -173 -66 0 -71 12 -71 171 0 78 5 149 10 160 9 15 22 19 63 19 29 0
58 -5 65 -12z"/>
</g>
</svg>
