<svg fill="white" xmlns="http://www.w3.org/2000/svg" xmlns:xlink="http://www.w3.org/1999/xlink" version="1.1" x="0px" y="0px" viewBox="0 0 100 125" xml:space="preserve">
  <g>
    <g>
      <g>
        <path d="M68.841,25.569l-9.98-2.474c-0.735-0.181-1.476,0.269-1.657,1.004l-2.474,9.974c-0.181,0.735,0.269,1.481,1.004,1.662     c0.11,0.027,0.219,0.038,0.329,0.038c0.614,0,1.18-0.417,1.333-1.043l1.673-6.759l0.779,1.289     c2.491,4.131,3.226,8.992,2.063,13.672c-1.158,4.685-4.071,8.641-8.208,11.132c-0.664,0.401-1.355,0.763-2.068,1.075     c-1.053-1.898-2.891-3.352-5.185-3.835c-0.527-0.11-1.064-0.165-1.597-0.165c-3.643,0-6.831,2.59-7.582,6.156     c-0.422,2.024-0.033,4.098,1.097,5.832c1.13,1.728,2.869,2.919,4.894,3.347c0.527,0.11,1.064,0.165,1.602,0.165     c3.643,0,6.831-2.59,7.577-6.156c0.192-0.927,0.214-1.849,0.077-2.738c0.894-0.379,1.772-0.828,2.606-1.333     c4.757-2.869,8.115-7.423,9.453-12.816c1.333-5.399,0.488-10.989-2.381-15.752l-0.779-1.289l6.759,1.673     c0.735,0.181,1.481-0.269,1.662-1.004C70.02,26.49,69.576,25.75,68.841,25.569z M49.759,59.92     c-0.483,2.304-2.546,3.978-4.894,3.978c-0.346,0-0.697-0.033-1.037-0.104c-1.306-0.28-2.43-1.048-3.16-2.167     c-0.735-1.119-0.982-2.458-0.708-3.764c0.483-2.304,2.54-3.978,4.894-3.978c0.346,0,0.691,0.033,1.037,0.104     C48.59,54.559,50.324,57.22,49.759,59.92z"/>
      </g>
    </g>
    <g>
      <path d="M77.975,56.726c0.538,0.532,0.538,1.405,0,1.937c-0.269,0.269-0.62,0.401-0.966,0.401c-0.351,0-0.702-0.132-0.971-0.401    l-3.281-3.281l-3.281,3.281c-0.269,0.269-0.62,0.401-0.971,0.401c-0.346,0-0.697-0.132-0.966-0.401    c-0.538-0.532-0.538-1.405,0-1.937l3.281-3.281l-3.281-3.281c-0.538-0.532-0.538-1.405,0-1.937c0.532-0.538,1.405-0.538,1.937,0    l3.281,3.281l3.281-3.281c0.532-0.538,1.405-0.538,1.937,0c0.538,0.532,0.538,1.405,0,1.937l-3.281,3.281L77.975,56.726z"/>
      <path d="M49.435,36.432c0.538,0.532,0.538,1.405,0,1.937c-0.269,0.269-0.62,0.406-0.971,0.406s-0.702-0.137-0.971-0.406    l-3.275-3.275l-3.281,3.275c-0.269,0.269-0.62,0.406-0.971,0.406s-0.702-0.137-0.971-0.406c-0.532-0.532-0.532-1.405,0-1.937    l3.281-3.281l-3.281-3.281c-0.532-0.532-0.532-1.405,0-1.937c0.538-0.538,1.404-0.538,1.942,0l3.281,3.281l3.275-3.281    c0.538-0.538,1.405-0.538,1.942,0c0.538,0.532,0.538,1.405,0,1.937l-3.281,3.281L49.435,36.432z"/>
      <path d="M33.678,49.901c0.532,0.532,0.532,1.405,0,1.937c-0.269,0.269-0.62,0.401-0.971,0.401c-0.351,0-0.702-0.132-0.971-0.401    l-3.275-3.275l-3.281,3.275c-0.269,0.269-0.62,0.401-0.971,0.401c-0.351,0-0.702-0.132-0.971-0.401    c-0.538-0.532-0.538-1.404,0-1.937l3.281-3.281l-3.281-3.281c-0.538-0.532-0.538-1.405,0-1.937c0.538-0.538,1.405-0.538,1.942,0    l3.281,3.281l3.275-3.281c0.538-0.538,1.405-0.538,1.942,0c0.532,0.532,0.532,1.404,0,1.937l-3.281,3.281L33.678,49.901z"/>
    </g>
    <g>
      <path d="M93.628,14.662H6.372C5.614,14.662,5,15.276,5,16.033v56.763c0,0.757,0.614,1.372,1.372,1.372h42.257v8.427H30.386    c-0.757,0-1.372,0.615-1.372,1.372c0,0.757,0.615,1.372,1.372,1.372h39.228c0.757,0,1.372-0.614,1.372-1.372    c0-0.757-0.614-1.372-1.372-1.372H51.372v-8.427h42.257c0.757,0,1.372-0.615,1.372-1.372V16.033    C95,15.276,94.386,14.662,93.628,14.662z M92.257,71.425H7.743v-54.02h84.514V71.425z"/>
    </g>
  </g>
</svg>
