<?xml version="1.0" standalone="no"?>
<!DOCTYPE svg PUBLIC "-//W3C//DTD SVG 20010904//EN"
 "http://www.w3.org/TR/2001/REC-SVG-20010904/DTD/svg10.dtd">
<svg version="1.0" xmlns="http://www.w3.org/2000/svg"
 width="306.000000pt" height="242.000000pt" viewBox="0 0 306.000000 242.000000"
 preserveAspectRatio="xMidYMid meet">

<g transform="translate(0.000000,242.000000) scale(0.100000,-0.100000)"
fill="#000000" stroke="none">
<path d="M30 2371 c-7 -13 -10 -337 -10 -980 0 -948 0 -961 20 -981 20 -20 33
-20 730 -20 l711 0 -3 -137 -3 -138 -309 -3 c-208 -1 -314 -6 -323 -13 -19
-17 -16 -57 6 -69 30 -15 1353 -14 1369 2 16 16 15 53 -1 67 -9 7 -115 12
-323 13 l-309 3 -3 138 -3 137 711 0 c697 0 710 0 730 20 20 20 20 33 20 981
0 643 -3 967 -10 980 -11 19 -38 19 -1500 19 -1462 0 -1489 0 -1500 -19z
m2915 -976 l0 -900 -1415 0 -1415 0 -3 890 c-1 490 0 896 3 903 3 10 292 12
1417 10 l1413 -3 0 -900z"/>
<path d="M1776 2078 c-7 -18 -30 -104 -52 -191 -42 -170 -41 -189 9 -195 33
-4 40 10 71 133 14 54 27 99 29 102 9 8 44 -52 70 -117 39 -101 52 -204 37
-297 -14 -90 -49 -187 -95 -258 -38 -61 -148 -163 -209 -196 l-45 -23 -38 40
c-101 109 -253 121 -361 28 -135 -115 -117 -332 35 -421 42 -24 58 -28 128
-28 94 0 140 20 198 84 37 41 67 119 67 176 0 28 7 35 68 69 38 22 102 74 148
120 64 64 90 99 122 166 108 221 108 425 1 643 -18 37 -31 69 -28 72 3 3 54
-7 113 -22 118 -29 139 -26 144 20 4 35 -10 41 -196 88 -194 48 -199 48 -216
7z m-341 -1024 c42 -20 69 -54 84 -109 30 -109 -80 -222 -195 -200 -57 10
-120 77 -129 136 -11 77 27 146 100 181 45 21 85 19 140 -8z"/>
<path d="M1162 1948 c-23 -23 -12 -50 43 -107 30 -32 55 -61 55 -66 0 -5 -25
-34 -55 -66 -55 -57 -66 -84 -43 -107 23 -23 54 -12 98 34 73 74 73 74 145 5
47 -46 68 -59 82 -54 50 18 43 58 -22 123 -30 30 -55 59 -55 65 0 6 25 35 55
65 55 54 67 84 43 108 -23 23 -50 12 -107 -43 -32 -30 -62 -55 -67 -55 -5 0
-34 25 -64 55 -54 55 -84 67 -108 43z"/>
<path d="M637 1492 c-10 -10 -17 -24 -17 -31 0 -7 27 -41 61 -76 l61 -64 -61
-65 c-34 -36 -61 -72 -61 -79 0 -17 32 -47 49 -47 7 0 42 28 77 62 l65 62 64
-64 c60 -59 66 -63 90 -52 43 20 34 58 -32 124 l-57 58 57 58 c62 62 74 102
38 122 -11 5 -22 10 -26 10 -3 0 -35 -27 -71 -61 l-65 -61 -64 61 c-35 34 -70
61 -78 61 -7 0 -21 -8 -30 -18z"/>
<path d="M2128 1269 c-34 -19 -21 -57 39 -120 l57 -60 -57 -57 c-58 -58 -71
-94 -45 -120 21 -21 39 -13 104 50 l64 61 64 -61 c35 -34 71 -62 79 -62 16 0
47 31 47 48 0 6 -25 39 -55 73 -30 34 -55 66 -55 72 0 6 25 36 55 68 58 61 65
78 39 104 -24 23 -51 11 -115 -52 l-57 -55 -66 61 c-70 65 -72 66 -98 50z"/>
</g>
</svg>
