<?xml version="1.0" standalone="no"?><!-- Generator: Gravit.io --><svg xmlns="http://www.w3.org/2000/svg" xmlns:xlink="http://www.w3.org/1999/xlink" style="isolation:isolate" viewBox="0 0 408 322.667" width="408" height="322.667"><defs><clipPath id="_clipPath_NzaGQp1FomD34MkywW4GgdFWnyJWzqwP"><rect width="408" height="322.667"/></clipPath></defs><g clip-path="url(#_clipPath_NzaGQp1FomD34MkywW4GgdFWnyJWzqwP)"><path d=" M 4 6.533 C 3.067 8.267 2.667 51.467 2.667 137.2 C 2.667 263.6 2.667 265.333 5.333 268 C 8 270.667 9.733 270.667 102.667 270.667 L 197.467 270.667 L 197.067 288.933 L 196.667 307.333 L 155.467 307.733 C 127.733 307.867 113.6 308.533 112.4 309.467 C 109.867 311.733 110.267 317.067 113.2 318.667 C 117.2 320.667 293.6 320.533 295.733 318.4 C 297.867 316.267 297.733 311.333 295.6 309.467 C 294.4 308.533 280.267 307.867 252.533 307.733 L 211.333 307.333 L 210.933 288.933 L 210.533 270.667 L 305.333 270.667 C 398.267 270.667 400 270.667 402.667 268 C 405.333 265.333 405.333 263.6 405.333 137.2 C 405.333 51.467 404.933 8.267 404 6.533 C 402.533 4 398.933 4 204 4 C 9.067 4 5.467 4 4 6.533 Z  M 392.667 136.667 L 392.667 256.667 L 204 256.667 L 15.333 256.667 L 14.933 138 C 14.8 72.667 14.933 18.533 15.333 17.6 C 15.733 16.267 54.267 16 204.267 16.267 L 392.667 16.667 L 392.667 136.667 Z " fill="rgb(255,255,255)"/><path d=" M 236.8 45.6 C 235.867 48 232.8 59.467 229.867 71.067 C 224.267 93.733 224.4 96.267 231.067 97.067 C 235.467 97.6 236.4 95.733 240.533 79.333 C 242.4 72.133 244.133 66.133 244.4 65.733 C 245.6 64.667 250.267 72.667 253.733 81.333 C 258.933 94.8 260.667 108.533 258.667 120.933 C 256.8 132.933 252.133 145.867 246 155.333 C 240.933 163.467 226.267 177.067 218.133 181.467 L 212.133 184.533 L 207.067 179.2 C 193.6 164.667 173.333 163.067 158.933 175.467 C 140.933 190.8 143.333 219.733 163.6 231.6 C 169.2 234.8 171.333 235.333 180.667 235.333 C 193.2 235.333 199.333 232.667 207.067 224.133 C 212 218.667 216 208.267 216 200.667 C 216 196.933 216.933 196 225.067 191.467 C 230.133 188.533 238.667 181.6 244.8 175.467 C 253.333 166.933 256.8 162.267 261.067 153.333 C 275.467 123.867 275.467 96.667 261.2 67.6 C 258.8 62.667 257.067 58.4 257.467 58 C 257.867 57.6 264.667 58.933 272.533 60.933 C 288.267 64.8 291.067 64.4 291.733 58.267 C 292.267 53.6 290.4 52.8 265.6 46.533 C 239.733 40.133 239.067 40.133 236.8 45.6 Z  M 191.333 182.133 C 196.933 184.8 200.533 189.333 202.533 196.667 C 206.533 211.2 191.867 226.267 176.533 223.333 C 168.933 222 160.533 213.067 159.333 205.2 C 157.867 194.933 162.933 185.733 172.667 181.067 C 178.667 178.267 184 178.533 191.333 182.133 Z " fill="rgb(255,255,255)"/><path d=" M 154.933 62.933 C 151.867 66 153.333 69.6 160.667 77.2 C 164.667 81.467 168 85.333 168 86 C 168 86.667 164.667 90.533 160.667 94.8 C 153.333 102.4 151.867 106 154.933 109.067 C 158 112.133 162.133 110.667 168 104.533 C 177.733 94.667 177.733 94.667 187.333 103.867 C 193.6 110 196.4 111.733 198.267 111.067 C 204.933 108.667 204 103.333 195.333 94.667 C 191.333 90.667 188 86.8 188 86 C 188 85.2 191.333 81.333 195.333 77.333 C 202.667 70.133 204.267 66.133 201.067 62.933 C 198 59.867 194.4 61.333 186.8 68.667 C 182.533 72.667 178.533 76 177.867 76 C 177.2 76 173.333 72.667 169.333 68.667 C 162.133 61.333 158.133 59.733 154.933 62.933 Z " fill="rgb(255,255,255)"/><path d=" M 84.933 123.733 C 83.6 125.067 82.667 126.933 82.667 127.867 C 82.667 128.8 86.267 133.333 90.8 138 L 98.933 146.533 L 90.8 155.2 C 86.267 160 82.667 164.8 82.667 165.733 C 82.667 168 86.933 172 89.2 172 C 90.133 172 94.8 168.267 99.467 163.733 L 108.133 155.467 L 116.667 164 C 124.667 171.867 125.467 172.4 128.667 170.933 C 134.4 168.267 133.2 163.2 124.4 154.4 L 116.8 146.667 L 124.4 138.933 C 132.667 130.667 134.267 125.333 129.467 122.667 C 128 122 126.533 121.333 126 121.333 C 125.6 121.333 121.333 124.933 116.533 129.467 L 107.867 137.6 L 99.333 129.467 C 94.667 124.933 90 121.333 88.933 121.333 C 88 121.333 86.133 122.4 84.933 123.733 Z " fill="rgb(255,255,255)"/><path d=" M 283.733 153.467 C 279.2 156 280.933 161.067 288.933 169.467 L 296.533 177.467 L 288.933 185.067 C 281.2 192.8 279.467 197.6 282.933 201.067 C 285.733 203.867 288.133 202.8 296.8 194.4 L 305.333 186.267 L 313.867 194.4 C 318.533 198.933 323.333 202.667 324.4 202.667 C 326.533 202.667 330.667 198.533 330.667 196.267 C 330.667 195.467 327.333 191.067 323.333 186.533 C 319.333 182 316 177.733 316 176.933 C 316 176.133 319.333 172.133 323.333 167.867 C 331.067 159.733 332 157.467 328.533 154 C 325.333 150.933 321.733 152.533 313.2 160.933 L 305.6 168.267 L 296.8 160.133 C 287.467 151.467 287.2 151.333 283.733 153.467 Z " fill="rgb(255,255,255)"/></g></svg>