<?xml version="1.0" standalone="no"?>
<!DOCTYPE svg PUBLIC "-//W3C//DTD SVG 20010904//EN"
 "http://www.w3.org/TR/2001/REC-SVG-20010904/DTD/svg10.dtd">
<svg version="1.0" xmlns="http://www.w3.org/2000/svg"
 width="306.000000pt" height="242.000000pt" viewBox="0 0 306.000000 242.000000"
 preserveAspectRatio="xMidYMid meet">

<g transform="translate(0.000000,242.000000) scale(0.100000,-0.100000)"
fill="#000000" stroke="none">
<path d="M32 2378 c-9 -9 -12 -241 -12 -984 0 -891 1 -973 17 -985 13 -12 145
-15 727 -19 l711 -5 0 -135 0 -135 -309 -3 c-271 -2 -312 -4 -328 -19 -23 -20
-23 -36 0 -56 17 -16 79 -17 690 -17 602 0 672 2 687 16 14 14 13 47 -2 64 -3
3 -147 7 -321 10 l-317 5 0 135 0 135 718 5 c623 4 719 7 727 20 15 24 13
1953 -2 1968 -17 17 -2969 17 -2986 0z m2908 -983 l0 -905 -1415 0 -1415 0 0
905 0 905 1415 0 1415 0 0 -905z"/>
<path d="M1587 1818 c-23 -21 -63 -113 -288 -650 -27 -64 -49 -125 -49 -136 0
-10 11 -29 25 -42 21 -20 30 -22 53 -14 29 10 13 -24 251 538 56 131 101 251
101 267 0 17 -8 34 -22 43 -30 21 -42 20 -71 -6z"/>
<path d="M880 1579 c-100 -78 -186 -152 -192 -165 -8 -18 -8 -30 1 -47 16 -30
363 -277 389 -277 25 0 62 36 62 60 0 28 -21 47 -154 142 -71 51 -131 98 -133
105 -2 6 61 62 141 125 124 96 146 117 146 140 0 29 -31 58 -62 58 -9 0 -98
-64 -198 -141z"/>
<path d="M1812 1704 c-22 -15 -29 -49 -14 -69 4 -6 69 -60 145 -119 76 -60
136 -113 134 -120 -2 -6 -64 -54 -137 -107 -73 -52 -137 -105 -141 -117 -11
-30 9 -71 37 -78 30 -8 43 0 237 139 165 118 188 143 174 181 -3 8 -59 57
-124 108 -268 213 -268 213 -311 182z"/>
</g>
</svg>
